solid OpenSCAD_Model
  facet normal 0 0 1
    outer loop
      vertex 21.2188 15.1562 32.4742
      vertex 22.732 16.2371 32.4742
      vertex 21.6495 17.3196 32.4742
    endloop
  endfacet
  facet normal 0 -0 1
    outer loop
      vertex 21.2969 15 32.4742
      vertex 22.732 16.2371 32.4742
      vertex 21.2188 15.1562 32.4742
    endloop
  endfacet
  facet normal 0 0 1
    outer loop
      vertex 22.732 16.2371 32.4742
      vertex 21.2969 15 32.4742
      vertex 23.3505 15 32.4742
    endloop
  endfacet
  facet normal 0 0 1
    outer loop
      vertex 20.2083 16.1667 32.4742
      vertex 21.6495 17.3196 32.4742
      vertex 20.2423 18.4021 32.4742
    endloop
  endfacet
  facet normal 0 0 1
    outer loop
      vertex 21.6495 17.3196 32.4742
      vertex 20.2083 16.1667 32.4742
      vertex 21.2188 15.1562 32.4742
    endloop
  endfacet
  facet normal 0 0 1
    outer loop
      vertex 20.2423 18.4021 32.4742
      vertex 18.8948 17.1771 32.4742
      vertex 20.2083 16.1667 32.4742
    endloop
  endfacet
  facet normal 0 0 1
    outer loop
      vertex 18.4021 19.4845 32.4742
      vertex 18.8948 17.1771 32.4742
      vertex 20.2423 18.4021 32.4742
    endloop
  endfacet
  facet normal 0 0 1
    outer loop
      vertex 18.4021 19.4845 32.4742
      vertex 17.1771 18.1875 32.4742
      vertex 18.8948 17.1771 32.4742
    endloop
  endfacet
  facet normal 0 0 1
    outer loop
      vertex 16.7784 20.567 32.4742
      vertex 17.1771 18.1875 32.4742
      vertex 18.4021 19.4845 32.4742
    endloop
  endfacet
  facet normal 0 0 1
    outer loop
      vertex 16.7784 20.567 32.4742
      vertex 15.6615 19.1979 32.4742
      vertex 17.1771 18.1875 32.4742
    endloop
  endfacet
  facet normal 0 0 1
    outer loop
      vertex 14.6134 21.6495 32.4742
      vertex 15.6615 19.1979 32.4742
      vertex 16.7784 20.567 32.4742
    endloop
  endfacet
  facet normal 0 0 1
    outer loop
      vertex 14.6134 21.6495 32.4742
      vertex 13.6406 20.2083 32.4742
      vertex 15.6615 19.1979 32.4742
    endloop
  endfacet
  facet normal 0 0 1
    outer loop
      vertex 11.9072 22.732 32.4742
      vertex 13.6406 20.2083 32.4742
      vertex 14.6134 21.6495 32.4742
    endloop
  endfacet
  facet normal 0 0 1
    outer loop
      vertex 11.9072 22.732 32.4742
      vertex 11.1146 21.2188 32.4742
      vertex 13.6406 20.2083 32.4742
    endloop
  endfacet
  facet normal 0 0 1
    outer loop
      vertex 3.24742 24.8969 32.4742
      vertex 11.1146 21.2188 32.4742
      vertex 11.9072 22.732 32.4742
    endloop
  endfacet
  facet normal 0 0 1
    outer loop
      vertex 3.24742 24.8969 32.4742
      vertex 3.03125 23.2396 32.4742
      vertex 11.1146 21.2188 32.4742
    endloop
  endfacet
  facet normal 0 0 1
    outer loop
      vertex 3.24742 24.8969 32.4742
      vertex -3.03125 23.2396 32.4742
      vertex 3.03125 23.2396 32.4742
    endloop
  endfacet
  facet normal -0 0 1
    outer loop
      vertex -3.24742 24.8969 32.4742
      vertex -3.03125 23.2396 32.4742
      vertex 3.24742 24.8969 32.4742
    endloop
  endfacet
  facet normal 0 0 1
    outer loop
      vertex -3.24742 24.8969 32.4742
      vertex -11.1146 21.2188 32.4742
      vertex -3.03125 23.2396 32.4742
    endloop
  endfacet
  facet normal -0 0 1
    outer loop
      vertex -11.9072 22.732 32.4742
      vertex -11.1146 21.2188 32.4742
      vertex -3.24742 24.8969 32.4742
    endloop
  endfacet
  facet normal 0 0 1
    outer loop
      vertex -11.9072 22.732 32.4742
      vertex -13.6406 20.2083 32.4742
      vertex -11.1146 21.2188 32.4742
    endloop
  endfacet
  facet normal -0 0 1
    outer loop
      vertex -14.6134 21.6495 32.4742
      vertex -13.6406 20.2083 32.4742
      vertex -11.9072 22.732 32.4742
    endloop
  endfacet
  facet normal 0 0 1
    outer loop
      vertex -14.6134 21.6495 32.4742
      vertex -15.6615 19.1979 32.4742
      vertex -13.6406 20.2083 32.4742
    endloop
  endfacet
  facet normal -0 0 1
    outer loop
      vertex -16.7784 20.567 32.4742
      vertex -15.6615 19.1979 32.4742
      vertex -14.6134 21.6495 32.4742
    endloop
  endfacet
  facet normal 0 0 1
    outer loop
      vertex -16.7784 20.567 32.4742
      vertex -17.1771 18.1875 32.4742
      vertex -15.6615 19.1979 32.4742
    endloop
  endfacet
  facet normal -0 0 1
    outer loop
      vertex -18.4021 19.4845 32.4742
      vertex -17.1771 18.1875 32.4742
      vertex -16.7784 20.567 32.4742
    endloop
  endfacet
  facet normal 0 0 1
    outer loop
      vertex -18.4021 19.4845 32.4742
      vertex -18.8948 17.1771 32.4742
      vertex -17.1771 18.1875 32.4742
    endloop
  endfacet
  facet normal -0 0 1
    outer loop
      vertex -20.2423 18.4021 32.4742
      vertex -18.8948 17.1771 32.4742
      vertex -18.4021 19.4845 32.4742
    endloop
  endfacet
  facet normal 0 0 1
    outer loop
      vertex -18.8948 17.1771 32.4742
      vertex -20.2423 18.4021 32.4742
      vertex -20.2083 16.1667 32.4742
    endloop
  endfacet
  facet normal -0 0 1
    outer loop
      vertex -21.6495 17.3196 32.4742
      vertex -20.2083 16.1667 32.4742
      vertex -20.2423 18.4021 32.4742
    endloop
  endfacet
  facet normal 0 0 1
    outer loop
      vertex -20.2083 16.1667 32.4742
      vertex -21.6495 17.3196 32.4742
      vertex -21.2188 15.1562 32.4742
    endloop
  endfacet
  facet normal -0 0 1
    outer loop
      vertex -22.732 16.2371 32.4742
      vertex -21.2188 15.1562 32.4742
      vertex -21.6495 17.3196 32.4742
    endloop
  endfacet
  facet normal 0 0 1
    outer loop
      vertex -24.3557 12.9897 32.4742
      vertex -21.2188 15.1562 32.4742
      vertex -22.732 16.2371 32.4742
    endloop
  endfacet
  facet normal 0 0 1
    outer loop
      vertex -21.2188 15.1562 32.4742
      vertex -24.3557 12.9897 32.4742
      vertex -22.7344 12.125 32.4742
    endloop
  endfacet
  facet normal 0 0 1
    outer loop
      vertex -25.9794 2.16495 32.4742
      vertex -24.0479 6.0625 32.4742
      vertex -25.7629 6.49485 32.4742
    endloop
  endfacet
  facet normal 0 0 1
    outer loop
      vertex -22.7344 12.125 32.4742
      vertex -25.7629 6.49485 32.4742
      vertex -24.0479 6.0625 32.4742
    endloop
  endfacet
  facet normal 0 0 1
    outer loop
      vertex -25.7629 6.49485 32.4742
      vertex -22.7344 12.125 32.4742
      vertex -24.3557 12.9897 32.4742
    endloop
  endfacet
  facet normal 0 0 1
    outer loop
      vertex -22 -13.5938 32.4742
      vertex -22.732 -16.2371 32.4742
      vertex -22 -16.9691 32.4742
    endloop
  endfacet
  facet normal -0 0 1
    outer loop
      vertex -24.3557 -12.9897 32.4742
      vertex -22 -13.5938 32.4742
      vertex -22.7344 -12.125 32.4742
    endloop
  endfacet
  facet normal -0 0 1
    outer loop
      vertex -25.7629 -6.49485 32.4742
      vertex -22.7344 -12.125 32.4742
      vertex -24.0479 -6.0625 32.4742
    endloop
  endfacet
  facet normal 0 0 1
    outer loop
      vertex -22 -13.5938 32.4742
      vertex -24.3557 -12.9897 32.4742
      vertex -22.732 -16.2371 32.4742
    endloop
  endfacet
  facet normal -0 0 1
    outer loop
      vertex -25.9794 -2.16495 32.4742
      vertex -24.0479 -6.0625 32.4742
      vertex -24.25 -2.02083 32.4742
    endloop
  endfacet
  facet normal 0 0 1
    outer loop
      vertex -24.0479 6.0625 32.4742
      vertex -25.9794 2.16495 32.4742
      vertex -24.25 2.02083 32.4742
    endloop
  endfacet
  facet normal 0 0 1
    outer loop
      vertex -24.25 2.02083 32.4742
      vertex -25.9794 2.16495 32.4742
      vertex -24.25 -2.02083 32.4742
    endloop
  endfacet
  facet normal 0 0 1
    outer loop
      vertex -25.9794 -2.16495 32.4742
      vertex -24.25 -2.02083 32.4742
      vertex -25.9794 2.16495 32.4742
    endloop
  endfacet
  facet normal 0 0 1
    outer loop
      vertex -24.0479 -6.0625 32.4742
      vertex -25.9794 -2.16495 32.4742
      vertex -25.7629 -6.49485 32.4742
    endloop
  endfacet
  facet normal 0 0 1
    outer loop
      vertex -22.7344 -12.125 32.4742
      vertex -25.7629 -6.49485 32.4742
      vertex -24.3557 -12.9897 32.4742
    endloop
  endfacet
  facet normal -0 0 1
    outer loop
      vertex 21.2969 -15 32.4742
      vertex 22.732 -16.2371 32.4742
      vertex 23.3505 -15 32.4742
    endloop
  endfacet
  facet normal 0 0 1
    outer loop
      vertex 22.732 -16.2371 32.4742
      vertex 21.2969 -15 32.4742
      vertex 21.2188 -15.1562 32.4742
    endloop
  endfacet
  facet normal 0 0 1
    outer loop
      vertex 22.732 -16.2371 32.4742
      vertex 21.2188 -15.1562 32.4742
      vertex 21.6495 -17.3196 32.4742
    endloop
  endfacet
  facet normal -0 0 1
    outer loop
      vertex 20.2083 -16.1667 32.4742
      vertex 21.6495 -17.3196 32.4742
      vertex 21.2188 -15.1562 32.4742
    endloop
  endfacet
  facet normal 0 0 1
    outer loop
      vertex 21.6495 -17.3196 32.4742
      vertex 20.2083 -16.1667 32.4742
      vertex 20.2423 -18.4021 32.4742
    endloop
  endfacet
  facet normal -0 0 1
    outer loop
      vertex 18.8948 -17.1771 32.4742
      vertex 20.2423 -18.4021 32.4742
      vertex 20.2083 -16.1667 32.4742
    endloop
  endfacet
  facet normal 0 0 1
    outer loop
      vertex 18.8948 -17.1771 32.4742
      vertex 18.4021 -19.4845 32.4742
      vertex 20.2423 -18.4021 32.4742
    endloop
  endfacet
  facet normal -0 0 1
    outer loop
      vertex 17.1771 -18.1875 32.4742
      vertex 18.4021 -19.4845 32.4742
      vertex 18.8948 -17.1771 32.4742
    endloop
  endfacet
  facet normal 0 0 1
    outer loop
      vertex 17.1771 -18.1875 32.4742
      vertex 16.7784 -20.567 32.4742
      vertex 18.4021 -19.4845 32.4742
    endloop
  endfacet
  facet normal -0 0 1
    outer loop
      vertex 15.6615 -19.1979 32.4742
      vertex 16.7784 -20.567 32.4742
      vertex 17.1771 -18.1875 32.4742
    endloop
  endfacet
  facet normal 0 0 1
    outer loop
      vertex 15.6615 -19.1979 32.4742
      vertex 14.6134 -21.6495 32.4742
      vertex 16.7784 -20.567 32.4742
    endloop
  endfacet
  facet normal -0 0 1
    outer loop
      vertex 13.6406 -20.2083 32.4742
      vertex 14.6134 -21.6495 32.4742
      vertex 15.6615 -19.1979 32.4742
    endloop
  endfacet
  facet normal 0 0 1
    outer loop
      vertex 13.6406 -20.2083 32.4742
      vertex 11.9072 -22.732 32.4742
      vertex 14.6134 -21.6495 32.4742
    endloop
  endfacet
  facet normal -0 0 1
    outer loop
      vertex 11.1146 -21.2188 32.4742
      vertex 11.9072 -22.732 32.4742
      vertex 13.6406 -20.2083 32.4742
    endloop
  endfacet
  facet normal 0 0 1
    outer loop
      vertex 11.1146 -21.2188 32.4742
      vertex 3.24742 -24.8969 32.4742
      vertex 11.9072 -22.732 32.4742
    endloop
  endfacet
  facet normal -0 0 1
    outer loop
      vertex 3.03125 -23.2396 32.4742
      vertex 3.24742 -24.8969 32.4742
      vertex 11.1146 -21.2188 32.4742
    endloop
  endfacet
  facet normal 0 0 1
    outer loop
      vertex 0 -24.8969 32.4742
      vertex 3.03125 -23.2396 32.4742
      vertex 0 -23.2396 32.4742
    endloop
  endfacet
  facet normal 0 0 1
    outer loop
      vertex 3.03125 -23.2396 32.4742
      vertex 0 -24.8969 32.4742
      vertex 3.24742 -24.8969 32.4742
    endloop
  endfacet
  facet normal 0.998754 0.0499093 -0
    outer loop
      vertex 25.8376 5 13
      vertex 25.7629 6.49485 28
      vertex 25.8376 5 28
    endloop
  endfacet
  facet normal 0.998754 0.0499093 0
    outer loop
      vertex 25.7629 6.49485 28
      vertex 25.8376 5 13
      vertex 25.7629 6.49485 -10.8247
    endloop
  endfacet
  facet normal 0.998752 0.0499543 -0
    outer loop
      vertex 25.9794 2.16495 -10.8247
      vertex 25.8376 5 13
      vertex 25.9794 2.16495 13
    endloop
  endfacet
  facet normal 0.998752 0.0499388 1.854e-06
    outer loop
      vertex 25.8376 5 13
      vertex 25.9794 2.16495 -10.8247
      vertex 25.7629 6.49485 -10.8247
    endloop
  endfacet
  facet normal 0.977324 0.211751 0
    outer loop
      vertex 25.7629 6.49485 28
      vertex 24.3557 12.9897 -10.8247
      vertex 24.3557 12.9897 28
    endloop
  endfacet
  facet normal 0.977324 0.211751 0
    outer loop
      vertex 24.3557 12.9897 -10.8247
      vertex 25.7629 6.49485 28
      vertex 25.7629 6.49485 -10.8247
    endloop
  endfacet
  facet normal 0.894442 0.447185 -0
    outer loop
      vertex 23.3505 15 28
      vertex 22.732 16.2371 32.4742
      vertex 23.3505 15 32.4742
    endloop
  endfacet
  facet normal 0.894442 0.447185 0
    outer loop
      vertex 22.732 16.2371 32.4742
      vertex 23.3505 15 28
      vertex 22.732 16.2371 -10.8247
    endloop
  endfacet
  facet normal 0.894418 0.447231 -0
    outer loop
      vertex 24.3557 12.9897 -10.8247
      vertex 23.3505 15 28
      vertex 24.3557 12.9897 28
    endloop
  endfacet
  facet normal 0.894427 0.447214 1.15188e-06
    outer loop
      vertex 23.3505 15 28
      vertex 24.3557 12.9897 -10.8247
      vertex 22.732 16.2371 -10.8247
    endloop
  endfacet
  facet normal 0.707107 0.707107 0
    outer loop
      vertex 22.732 16.2371 32.4742
      vertex 21.6495 17.3196 -10.8247
      vertex 21.6495 17.3196 32.4742
    endloop
  endfacet
  facet normal 0.707107 0.707107 0
    outer loop
      vertex 21.6495 17.3196 -10.8247
      vertex 22.732 16.2371 32.4742
      vertex 22.732 16.2371 -10.8247
    endloop
  endfacet
  facet normal 0.609724 0.792614 -0
    outer loop
      vertex 21.6495 17.3196 -10.8247
      vertex 20.2423 18.4021 32.4742
      vertex 21.6495 17.3196 32.4742
    endloop
  endfacet
  facet normal 0.609724 0.792614 0
    outer loop
      vertex 20.2423 18.4021 32.4742
      vertex 21.6495 17.3196 -10.8247
      vertex 20.2423 18.4021 -10.8247
    endloop
  endfacet
  facet normal 0.506996 0.861949 -0
    outer loop
      vertex 20.2423 18.4021 -10.8247
      vertex 18.4021 19.4845 32.4742
      vertex 20.2423 18.4021 32.4742
    endloop
  endfacet
  facet normal 0.506996 0.861949 0
    outer loop
      vertex 18.4021 19.4845 32.4742
      vertex 20.2423 18.4021 -10.8247
      vertex 18.4021 19.4845 -10.8247
    endloop
  endfacet
  facet normal 0.554712 0.832042 -0
    outer loop
      vertex 18.4021 19.4845 -10.8247
      vertex 16.7784 20.567 32.4742
      vertex 18.4021 19.4845 32.4742
    endloop
  endfacet
  facet normal 0.554712 0.832042 0
    outer loop
      vertex 16.7784 20.567 32.4742
      vertex 18.4021 19.4845 -10.8247
      vertex 16.7784 20.567 -10.8247
    endloop
  endfacet
  facet normal 0.447214 0.894427 -0
    outer loop
      vertex 16.7784 20.567 -10.8247
      vertex 14.6134 21.6495 32.4742
      vertex 16.7784 20.567 32.4742
    endloop
  endfacet
  facet normal 0.447214 0.894427 0
    outer loop
      vertex 14.6134 21.6495 32.4742
      vertex 16.7784 20.567 -10.8247
      vertex 14.6134 21.6495 -10.8247
    endloop
  endfacet
  facet normal 0.371397 0.928474 -0
    outer loop
      vertex 14.6134 21.6495 -10.8247
      vertex 11.9072 22.732 32.4742
      vertex 14.6134 21.6495 32.4742
    endloop
  endfacet
  facet normal 0.371397 0.928474 0
    outer loop
      vertex 11.9072 22.732 32.4742
      vertex 14.6134 21.6495 -10.8247
      vertex 11.9072 22.732 -10.8247
    endloop
  endfacet
  facet normal 0.242531 0.970144 -0
    outer loop
      vertex 11.9072 22.732 -10.8247
      vertex 3.24742 24.8969 32.4742
      vertex 11.9072 22.732 32.4742
    endloop
  endfacet
  facet normal 0.242531 0.970144 0
    outer loop
      vertex 3.24742 24.8969 32.4742
      vertex 11.9072 22.732 -10.8247
      vertex 3.24742 24.8969 -10.8247
    endloop
  endfacet
  facet normal 0 1 -0
    outer loop
      vertex 3.24742 24.8969 -10.8247
      vertex -3.24742 24.8969 32.4742
      vertex 3.24742 24.8969 32.4742
    endloop
  endfacet
  facet normal 0 1 0
    outer loop
      vertex -3.24742 24.8969 32.4742
      vertex 3.24742 24.8969 -10.8247
      vertex -3.24742 24.8969 -10.8247
    endloop
  endfacet
  facet normal 1 -0 0
    outer loop
      vertex 25.9794 -2.16495 13
      vertex 25.9794 2.16495 -10.8247
      vertex 25.9794 2.16495 13
    endloop
  endfacet
  facet normal 1 0 0
    outer loop
      vertex 25.9794 2.16495 -10.8247
      vertex 25.9794 -2.16495 13
      vertex 25.9794 -2.16495 -10.8247
    endloop
  endfacet
  facet normal -0.998752 0.0499388 0
    outer loop
      vertex -25.9794 2.16495 -10.8247
      vertex -25.7629 6.49485 32.4742
      vertex -25.7629 6.49485 -10.8247
    endloop
  endfacet
  facet normal -0.998752 0.0499388 0
    outer loop
      vertex -25.7629 6.49485 32.4742
      vertex -25.9794 2.16495 -10.8247
      vertex -25.9794 2.16495 32.4742
    endloop
  endfacet
  facet normal -0.977324 0.211751 0
    outer loop
      vertex -25.7629 6.49485 -10.8247
      vertex -24.3557 12.9897 32.4742
      vertex -24.3557 12.9897 -10.8247
    endloop
  endfacet
  facet normal -0.977324 0.211751 0
    outer loop
      vertex -24.3557 12.9897 32.4742
      vertex -25.7629 6.49485 -10.8247
      vertex -25.7629 6.49485 32.4742
    endloop
  endfacet
  facet normal -0.894427 0.447214 0
    outer loop
      vertex -24.3557 12.9897 -10.8247
      vertex -22.732 16.2371 32.4742
      vertex -22.732 16.2371 -10.8247
    endloop
  endfacet
  facet normal -0.894427 0.447214 0
    outer loop
      vertex -22.732 16.2371 32.4742
      vertex -24.3557 12.9897 -10.8247
      vertex -24.3557 12.9897 32.4742
    endloop
  endfacet
  facet normal -0.707107 0.707107 0
    outer loop
      vertex -22.732 16.2371 -10.8247
      vertex -21.6495 17.3196 32.4742
      vertex -21.6495 17.3196 -10.8247
    endloop
  endfacet
  facet normal -0.707107 0.707107 0
    outer loop
      vertex -21.6495 17.3196 32.4742
      vertex -22.732 16.2371 -10.8247
      vertex -22.732 16.2371 32.4742
    endloop
  endfacet
  facet normal -0.609724 0.792614 0
    outer loop
      vertex -20.2423 18.4021 -10.8247
      vertex -21.6495 17.3196 32.4742
      vertex -20.2423 18.4021 32.4742
    endloop
  endfacet
  facet normal -0.609724 0.792614 0
    outer loop
      vertex -21.6495 17.3196 32.4742
      vertex -20.2423 18.4021 -10.8247
      vertex -21.6495 17.3196 -10.8247
    endloop
  endfacet
  facet normal -0.506996 0.861949 0
    outer loop
      vertex -18.4021 19.4845 -10.8247
      vertex -20.2423 18.4021 32.4742
      vertex -18.4021 19.4845 32.4742
    endloop
  endfacet
  facet normal -0.506996 0.861949 0
    outer loop
      vertex -20.2423 18.4021 32.4742
      vertex -18.4021 19.4845 -10.8247
      vertex -20.2423 18.4021 -10.8247
    endloop
  endfacet
  facet normal -0.554712 0.832042 0
    outer loop
      vertex -16.7784 20.567 -10.8247
      vertex -18.4021 19.4845 32.4742
      vertex -16.7784 20.567 32.4742
    endloop
  endfacet
  facet normal -0.554712 0.832042 0
    outer loop
      vertex -18.4021 19.4845 32.4742
      vertex -16.7784 20.567 -10.8247
      vertex -18.4021 19.4845 -10.8247
    endloop
  endfacet
  facet normal -0.447214 0.894427 0
    outer loop
      vertex -14.6134 21.6495 -10.8247
      vertex -16.7784 20.567 32.4742
      vertex -14.6134 21.6495 32.4742
    endloop
  endfacet
  facet normal -0.447214 0.894427 0
    outer loop
      vertex -16.7784 20.567 32.4742
      vertex -14.6134 21.6495 -10.8247
      vertex -16.7784 20.567 -10.8247
    endloop
  endfacet
  facet normal -0.371397 0.928474 0
    outer loop
      vertex -11.9072 22.732 -10.8247
      vertex -14.6134 21.6495 32.4742
      vertex -11.9072 22.732 32.4742
    endloop
  endfacet
  facet normal -0.371397 0.928474 0
    outer loop
      vertex -14.6134 21.6495 32.4742
      vertex -11.9072 22.732 -10.8247
      vertex -14.6134 21.6495 -10.8247
    endloop
  endfacet
  facet normal -0.242531 0.970144 0
    outer loop
      vertex -3.24742 24.8969 -10.8247
      vertex -11.9072 22.732 32.4742
      vertex -3.24742 24.8969 32.4742
    endloop
  endfacet
  facet normal -0.242531 0.970144 0
    outer loop
      vertex -11.9072 22.732 32.4742
      vertex -3.24742 24.8969 -10.8247
      vertex -11.9072 22.732 -10.8247
    endloop
  endfacet
  facet normal -1 0 0
    outer loop
      vertex -25.9794 -2.16495 -10.8247
      vertex -25.9794 2.16495 32.4742
      vertex -25.9794 2.16495 -10.8247
    endloop
  endfacet
  facet normal -1 -0 0
    outer loop
      vertex -25.9794 2.16495 32.4742
      vertex -25.9794 -2.16495 -10.8247
      vertex -25.9794 -2.16495 32.4742
    endloop
  endfacet
  facet normal 0.998754 -0.0499093 0
    outer loop
      vertex 25.8376 -5 28
      vertex 25.7629 -6.49485 28
      vertex 25.8376 -5 13
    endloop
  endfacet
  facet normal 0.998752 -0.0499543 0
    outer loop
      vertex 25.8376 -5 13
      vertex 25.9794 -2.16495 -10.8247
      vertex 25.9794 -2.16495 13
    endloop
  endfacet
  facet normal 0.998752 -0.0499388 1.854e-06
    outer loop
      vertex 25.8376 -5 13
      vertex 25.7629 -6.49485 -10.8247
      vertex 25.9794 -2.16495 -10.8247
    endloop
  endfacet
  facet normal 0.998754 -0.0499093 0
    outer loop
      vertex 25.7629 -6.49485 -10.8247
      vertex 25.8376 -5 13
      vertex 25.7629 -6.49485 28
    endloop
  endfacet
  facet normal 0.977324 -0.211751 0
    outer loop
      vertex 24.3557 -12.9897 28
      vertex 25.7629 -6.49485 -10.8247
      vertex 25.7629 -6.49485 28
    endloop
  endfacet
  facet normal 0.977324 -0.211751 0
    outer loop
      vertex 25.7629 -6.49485 -10.8247
      vertex 24.3557 -12.9897 28
      vertex 24.3557 -12.9897 -10.8247
    endloop
  endfacet
  facet normal 0.894442 -0.447185 0
    outer loop
      vertex 23.3505 -15 32.4742
      vertex 22.732 -16.2371 32.4742
      vertex 23.3505 -15 28
    endloop
  endfacet
  facet normal 0.894418 -0.447231 0
    outer loop
      vertex 23.3505 -15 28
      vertex 24.3557 -12.9897 -10.8247
      vertex 24.3557 -12.9897 28
    endloop
  endfacet
  facet normal 0.894442 -0.447185 0
    outer loop
      vertex 22.732 -16.2371 -10.8247
      vertex 23.3505 -15 28
      vertex 22.732 -16.2371 32.4742
    endloop
  endfacet
  facet normal 0.894427 -0.447214 1.15188e-06
    outer loop
      vertex 23.3505 -15 28
      vertex 22.732 -16.2371 -10.8247
      vertex 24.3557 -12.9897 -10.8247
    endloop
  endfacet
  facet normal 0.707107 -0.707107 0
    outer loop
      vertex 21.6495 -17.3196 32.4742
      vertex 22.732 -16.2371 -10.8247
      vertex 22.732 -16.2371 32.4742
    endloop
  endfacet
  facet normal 0.707107 -0.707107 0
    outer loop
      vertex 22.732 -16.2371 -10.8247
      vertex 21.6495 -17.3196 32.4742
      vertex 21.6495 -17.3196 -10.8247
    endloop
  endfacet
  facet normal 0.609724 -0.792614 0
    outer loop
      vertex 20.2423 -18.4021 -10.8247
      vertex 21.6495 -17.3196 32.4742
      vertex 20.2423 -18.4021 32.4742
    endloop
  endfacet
  facet normal 0.609724 -0.792614 0
    outer loop
      vertex 21.6495 -17.3196 32.4742
      vertex 20.2423 -18.4021 -10.8247
      vertex 21.6495 -17.3196 -10.8247
    endloop
  endfacet
  facet normal 0.506996 -0.861949 0
    outer loop
      vertex 18.4021 -19.4845 -10.8247
      vertex 20.2423 -18.4021 32.4742
      vertex 18.4021 -19.4845 32.4742
    endloop
  endfacet
  facet normal 0.506996 -0.861949 0
    outer loop
      vertex 20.2423 -18.4021 32.4742
      vertex 18.4021 -19.4845 -10.8247
      vertex 20.2423 -18.4021 -10.8247
    endloop
  endfacet
  facet normal 0.554712 -0.832042 0
    outer loop
      vertex 16.7784 -20.567 -10.8247
      vertex 18.4021 -19.4845 32.4742
      vertex 16.7784 -20.567 32.4742
    endloop
  endfacet
  facet normal 0.554712 -0.832042 0
    outer loop
      vertex 18.4021 -19.4845 32.4742
      vertex 16.7784 -20.567 -10.8247
      vertex 18.4021 -19.4845 -10.8247
    endloop
  endfacet
  facet normal 0.447214 -0.894427 0
    outer loop
      vertex 14.6134 -21.6495 -10.8247
      vertex 16.7784 -20.567 32.4742
      vertex 14.6134 -21.6495 32.4742
    endloop
  endfacet
  facet normal 0.447214 -0.894427 0
    outer loop
      vertex 16.7784 -20.567 32.4742
      vertex 14.6134 -21.6495 -10.8247
      vertex 16.7784 -20.567 -10.8247
    endloop
  endfacet
  facet normal 0.371397 -0.928474 0
    outer loop
      vertex 11.9072 -22.732 -10.8247
      vertex 14.6134 -21.6495 32.4742
      vertex 11.9072 -22.732 32.4742
    endloop
  endfacet
  facet normal 0.371397 -0.928474 0
    outer loop
      vertex 14.6134 -21.6495 32.4742
      vertex 11.9072 -22.732 -10.8247
      vertex 14.6134 -21.6495 -10.8247
    endloop
  endfacet
  facet normal 0.242531 -0.970144 0
    outer loop
      vertex 3.24742 -24.8969 -10.8247
      vertex 11.9072 -22.732 32.4742
      vertex 3.24742 -24.8969 32.4742
    endloop
  endfacet
  facet normal 0.242531 -0.970144 0
    outer loop
      vertex 11.9072 -22.732 32.4742
      vertex 3.24742 -24.8969 -10.8247
      vertex 11.9072 -22.732 -10.8247
    endloop
  endfacet
  facet normal 0 -1 0
    outer loop
      vertex -3.24742 -24.8969 2
      vertex -3.24742 -24.8969 -10.8247
      vertex 0 -24.8969 2
    endloop
  endfacet
  facet normal 0 -1 0
    outer loop
      vertex 0 -24.8969 2
      vertex 3.24742 -24.8969 32.4742
      vertex 0 -24.8969 32.4742
    endloop
  endfacet
  facet normal 0 -1 0
    outer loop
      vertex 0 -24.8969 2
      vertex 3.24742 -24.8969 -10.8247
      vertex 3.24742 -24.8969 32.4742
    endloop
  endfacet
  facet normal 0 -1 0
    outer loop
      vertex 3.24742 -24.8969 -10.8247
      vertex 0 -24.8969 2
      vertex -3.24742 -24.8969 -10.8247
    endloop
  endfacet
  facet normal -0.998752 -0.0499388 0
    outer loop
      vertex -25.7629 -6.49485 -10.8247
      vertex -25.9794 -2.16495 32.4742
      vertex -25.9794 -2.16495 -10.8247
    endloop
  endfacet
  facet normal -0.998752 -0.0499388 0
    outer loop
      vertex -25.9794 -2.16495 32.4742
      vertex -25.7629 -6.49485 -10.8247
      vertex -25.7629 -6.49485 32.4742
    endloop
  endfacet
  facet normal -0.977324 -0.211751 0
    outer loop
      vertex -24.3557 -12.9897 -10.8247
      vertex -25.7629 -6.49485 32.4742
      vertex -25.7629 -6.49485 -10.8247
    endloop
  endfacet
  facet normal -0.977324 -0.211751 0
    outer loop
      vertex -25.7629 -6.49485 32.4742
      vertex -24.3557 -12.9897 -10.8247
      vertex -24.3557 -12.9897 32.4742
    endloop
  endfacet
  facet normal -0.894427 -0.447214 0
    outer loop
      vertex -22.732 -16.2371 -10.8247
      vertex -24.3557 -12.9897 32.4742
      vertex -24.3557 -12.9897 -10.8247
    endloop
  endfacet
  facet normal -0.894427 -0.447214 0
    outer loop
      vertex -24.3557 -12.9897 32.4742
      vertex -22.732 -16.2371 -10.8247
      vertex -22.732 -16.2371 32.4742
    endloop
  endfacet
  facet normal -0.707107 -0.707107 0
    outer loop
      vertex -22.732 -16.2371 -10.8247
      vertex -22 -16.9691 2
      vertex -22.732 -16.2371 32.4742
    endloop
  endfacet
  facet normal -0.707107 -0.707107 0
    outer loop
      vertex -21.6495 -17.3196 -10.8247
      vertex -22 -16.9691 2
      vertex -22.732 -16.2371 -10.8247
    endloop
  endfacet
  facet normal -0.707107 -0.707107 0
    outer loop
      vertex -22 -16.9691 2
      vertex -21.6495 -17.3196 -10.8247
      vertex -21.6495 -17.3196 2
    endloop
  endfacet
  facet normal -0.707107 -0.707107 0
    outer loop
      vertex -22.732 -16.2371 32.4742
      vertex -22 -16.9691 2
      vertex -22 -16.9691 32.4742
    endloop
  endfacet
  facet normal -0.609724 -0.792614 0
    outer loop
      vertex -21.6495 -17.3196 -10.8247
      vertex -20.2423 -18.4021 2
      vertex -21.6495 -17.3196 2
    endloop
  endfacet
  facet normal -0.609724 -0.792614 -0
    outer loop
      vertex -20.2423 -18.4021 2
      vertex -21.6495 -17.3196 -10.8247
      vertex -20.2423 -18.4021 -10.8247
    endloop
  endfacet
  facet normal -0.506996 -0.861949 0
    outer loop
      vertex -20.2423 -18.4021 -10.8247
      vertex -18.4021 -19.4845 2
      vertex -20.2423 -18.4021 2
    endloop
  endfacet
  facet normal -0.506996 -0.861949 -0
    outer loop
      vertex -18.4021 -19.4845 2
      vertex -20.2423 -18.4021 -10.8247
      vertex -18.4021 -19.4845 -10.8247
    endloop
  endfacet
  facet normal -0.554712 -0.832042 0
    outer loop
      vertex -18.4021 -19.4845 -10.8247
      vertex -16.7784 -20.567 2
      vertex -18.4021 -19.4845 2
    endloop
  endfacet
  facet normal -0.554712 -0.832042 -0
    outer loop
      vertex -16.7784 -20.567 2
      vertex -18.4021 -19.4845 -10.8247
      vertex -16.7784 -20.567 -10.8247
    endloop
  endfacet
  facet normal -0.447214 -0.894427 0
    outer loop
      vertex -16.7784 -20.567 -10.8247
      vertex -14.6134 -21.6495 2
      vertex -16.7784 -20.567 2
    endloop
  endfacet
  facet normal -0.447214 -0.894427 -0
    outer loop
      vertex -14.6134 -21.6495 2
      vertex -16.7784 -20.567 -10.8247
      vertex -14.6134 -21.6495 -10.8247
    endloop
  endfacet
  facet normal -0.371397 -0.928474 0
    outer loop
      vertex -14.6134 -21.6495 -10.8247
      vertex -11.9072 -22.732 2
      vertex -14.6134 -21.6495 2
    endloop
  endfacet
  facet normal -0.371397 -0.928474 -0
    outer loop
      vertex -11.9072 -22.732 2
      vertex -14.6134 -21.6495 -10.8247
      vertex -11.9072 -22.732 -10.8247
    endloop
  endfacet
  facet normal -0.242531 -0.970144 0
    outer loop
      vertex -11.9072 -22.732 -10.8247
      vertex -3.24742 -24.8969 2
      vertex -11.9072 -22.732 2
    endloop
  endfacet
  facet normal -0.242531 -0.970144 -0
    outer loop
      vertex -3.24742 -24.8969 2
      vertex -11.9072 -22.732 -10.8247
      vertex -3.24742 -24.8969 -10.8247
    endloop
  endfacet
  facet normal 0 0 1
    outer loop
      vertex -21.6495 -17.3196 2
      vertex -22 -13.5938 2
      vertex -22 -16.9691 2
    endloop
  endfacet
  facet normal -0 0 1
    outer loop
      vertex 10.2705 2.18307 2
      vertex 24.25 2.02083 2
      vertex 24.0479 6.0625 2
    endloop
  endfacet
  facet normal 0 0 1
    outer loop
      vertex 24.25 2.02083 2
      vertex 10.5 0 2
      vertex 24.25 -2.02083 2
    endloop
  endfacet
  facet normal 0 0 1
    outer loop
      vertex 9.59223 4.27073 2
      vertex 24.0479 6.0625 2
      vertex 22.7344 12.125 2
    endloop
  endfacet
  facet normal 0 0 1
    outer loop
      vertex 24.25 2.02083 2
      vertex 10.2705 2.18307 2
      vertex 10.5 0 2
    endloop
  endfacet
  facet normal 0 0 1
    outer loop
      vertex 20.2083 16.1667 2
      vertex 22.7344 12.125 2
      vertex 21.2188 15.1562 2
    endloop
  endfacet
  facet normal 0 0 1
    outer loop
      vertex 24.25 -2.02083 2
      vertex 10.2705 -2.18307 2
      vertex 24.0479 -6.0625 2
    endloop
  endfacet
  facet normal 0 0 1
    outer loop
      vertex 22.7344 12.125 2
      vertex 20.2083 16.1667 2
      vertex 8.49468 6.17174 2
    endloop
  endfacet
  facet normal -0 0 1
    outer loop
      vertex 9.59223 -4.27073 2
      vertex 24.0479 -6.0625 2
      vertex 10.2705 -2.18307 2
    endloop
  endfacet
  facet normal 0 0 1
    outer loop
      vertex 8.49468 6.17174 2
      vertex 20.2083 16.1667 2
      vertex 18.8948 17.1771 2
    endloop
  endfacet
  facet normal 0 0 1
    outer loop
      vertex 24.0479 -6.0625 2
      vertex 9.59223 -4.27073 2
      vertex 22.7344 -12.125 2
    endloop
  endfacet
  facet normal 0 0 1
    outer loop
      vertex 8.49468 6.17174 2
      vertex 18.8948 17.1771 2
      vertex 17.1771 18.1875 2
    endloop
  endfacet
  facet normal -0 0 1
    outer loop
      vertex 8.49468 -6.17174 2
      vertex 22.7344 -12.125 2
      vertex 9.59223 -4.27073 2
    endloop
  endfacet
  facet normal 0 0 1
    outer loop
      vertex 7.02587 7.80302 2
      vertex 17.1771 18.1875 2
      vertex 15.6615 19.1979 2
    endloop
  endfacet
  facet normal 0 -0 1
    outer loop
      vertex 20.2083 -16.1667 2
      vertex 22.7344 -12.125 2
      vertex 8.49468 -6.17174 2
    endloop
  endfacet
  facet normal 0 0 1
    outer loop
      vertex 7.02587 7.80302 2
      vertex 15.6615 19.1979 2
      vertex 13.6406 20.2083 2
    endloop
  endfacet
  facet normal 0 0 1
    outer loop
      vertex 22.7344 -12.125 2
      vertex 20.2083 -16.1667 2
      vertex 21.2188 -15.1562 2
    endloop
  endfacet
  facet normal 0 0 1
    outer loop
      vertex 5.25 9.09327 2
      vertex 13.6406 20.2083 2
      vertex 11.1146 21.2188 2
    endloop
  endfacet
  facet normal 0 0 1
    outer loop
      vertex 20.2083 -16.1667 2
      vertex 8.49468 -6.17174 2
      vertex 18.8948 -17.1771 2
    endloop
  endfacet
  facet normal 0 0 1
    outer loop
      vertex 18.8948 -17.1771 2
      vertex 8.49468 -6.17174 2
      vertex 17.1771 -18.1875 2
    endloop
  endfacet
  facet normal 0 0 1
    outer loop
      vertex 10.2705 -2.18307 2
      vertex 24.25 -2.02083 2
      vertex 10.5 0 2
    endloop
  endfacet
  facet normal 0 0 1
    outer loop
      vertex 24.0479 6.0625 2
      vertex 9.59223 4.27073 2
      vertex 10.2705 2.18307 2
    endloop
  endfacet
  facet normal 0 0 1
    outer loop
      vertex 22.7344 12.125 2
      vertex 8.49468 6.17174 2
      vertex 9.59223 4.27073 2
    endloop
  endfacet
  facet normal 0 0 1
    outer loop
      vertex 17.1771 18.1875 2
      vertex 7.02587 7.80302 2
      vertex 8.49468 6.17174 2
    endloop
  endfacet
  facet normal 0 0 1
    outer loop
      vertex 13.6406 20.2083 2
      vertex 5.25 9.09327 2
      vertex 7.02587 7.80302 2
    endloop
  endfacet
  facet normal 0 0 1
    outer loop
      vertex 11.1146 21.2188 2
      vertex 3.24468 9.98609 2
      vertex 5.25 9.09327 2
    endloop
  endfacet
  facet normal 0 0 1
    outer loop
      vertex 3.03125 23.2396 2
      vertex 3.24468 9.98609 2
      vertex 11.1146 21.2188 2
    endloop
  endfacet
  facet normal 0 0 1
    outer loop
      vertex 3.03125 23.2396 2
      vertex 1.09755 10.4425 2
      vertex 3.24468 9.98609 2
    endloop
  endfacet
  facet normal 0 0 1
    outer loop
      vertex 3.03125 23.2396 2
      vertex -1.09755 10.4425 2
      vertex 1.09755 10.4425 2
    endloop
  endfacet
  facet normal -0 0 1
    outer loop
      vertex -3.03125 23.2396 2
      vertex -1.09755 10.4425 2
      vertex 3.03125 23.2396 2
    endloop
  endfacet
  facet normal 0 0 1
    outer loop
      vertex -3.03125 23.2396 2
      vertex -3.24468 9.98609 2
      vertex -1.09755 10.4425 2
    endloop
  endfacet
  facet normal -0 0 1
    outer loop
      vertex -11.1146 21.2188 2
      vertex -3.24468 9.98609 2
      vertex -3.03125 23.2396 2
    endloop
  endfacet
  facet normal 0 0 1
    outer loop
      vertex -3.24468 9.98609 2
      vertex -11.1146 21.2188 2
      vertex -5.25 9.09327 2
    endloop
  endfacet
  facet normal -0 0 1
    outer loop
      vertex -13.6406 20.2083 2
      vertex -5.25 9.09327 2
      vertex -11.1146 21.2188 2
    endloop
  endfacet
  facet normal 0 0 1
    outer loop
      vertex -5.25 9.09327 2
      vertex -13.6406 20.2083 2
      vertex -7.02587 7.80302 2
    endloop
  endfacet
  facet normal 0 0 1
    outer loop
      vertex -7.02587 7.80302 2
      vertex -17.1771 18.1875 2
      vertex -8.49468 6.17174 2
    endloop
  endfacet
  facet normal -0 0 1
    outer loop
      vertex -17.1771 18.1875 2
      vertex -7.02587 7.80302 2
      vertex -15.6615 19.1979 2
    endloop
  endfacet
  facet normal -0 0 1
    outer loop
      vertex -15.6615 19.1979 2
      vertex -7.02587 7.80302 2
      vertex -13.6406 20.2083 2
    endloop
  endfacet
  facet normal -0 0 1
    outer loop
      vertex 7.02587 -7.80302 2
      vertex 17.1771 -18.1875 2
      vertex 8.49468 -6.17174 2
    endloop
  endfacet
  facet normal 0 0 1
    outer loop
      vertex 17.1771 -18.1875 2
      vertex 7.02587 -7.80302 2
      vertex 15.6615 -19.1979 2
    endloop
  endfacet
  facet normal 0 0 1
    outer loop
      vertex 15.6615 -19.1979 2
      vertex 7.02587 -7.80302 2
      vertex 13.6406 -20.2083 2
    endloop
  endfacet
  facet normal -0 0 1
    outer loop
      vertex 5.25 -9.09327 2
      vertex 13.6406 -20.2083 2
      vertex 7.02587 -7.80302 2
    endloop
  endfacet
  facet normal 0 0 1
    outer loop
      vertex 13.6406 -20.2083 2
      vertex 5.25 -9.09327 2
      vertex 11.1146 -21.2188 2
    endloop
  endfacet
  facet normal -0 0 1
    outer loop
      vertex 3.24468 -9.98609 2
      vertex 11.1146 -21.2188 2
      vertex 5.25 -9.09327 2
    endloop
  endfacet
  facet normal 0 0 1
    outer loop
      vertex 3.24468 -9.98609 2
      vertex 3.03125 -23.2396 2
      vertex 11.1146 -21.2188 2
    endloop
  endfacet
  facet normal -0 0 1
    outer loop
      vertex 1.09755 -10.4425 2
      vertex 3.03125 -23.2396 2
      vertex 3.24468 -9.98609 2
    endloop
  endfacet
  facet normal 0 0 1
    outer loop
      vertex 1.09755 -10.4425 2
      vertex 0 -23.2396 2
      vertex 3.03125 -23.2396 2
    endloop
  endfacet
  facet normal -0 0 1
    outer loop
      vertex -1.09755 -10.4425 2
      vertex 0 -23.2396 2
      vertex 1.09755 -10.4425 2
    endloop
  endfacet
  facet normal 0 0 1
    outer loop
      vertex -3.24468 -9.98609 2
      vertex 0 -23.2396 2
      vertex -1.09755 -10.4425 2
    endloop
  endfacet
  facet normal 0 0 1
    outer loop
      vertex 0 -23.2396 2
      vertex -3.24468 -9.98609 2
      vertex -3.24742 -24.8969 2
    endloop
  endfacet
  facet normal 0 0 1
    outer loop
      vertex 0 -23.2396 2
      vertex -3.24742 -24.8969 2
      vertex 0 -24.8969 2
    endloop
  endfacet
  facet normal 0 0 1
    outer loop
      vertex -11.9072 -22.732 2
      vertex -3.24468 -9.98609 2
      vertex -5.25 -9.09327 2
    endloop
  endfacet
  facet normal 0 0 1
    outer loop
      vertex -14.6134 -21.6495 2
      vertex -5.25 -9.09327 2
      vertex -7.02587 -7.80302 2
    endloop
  endfacet
  facet normal 0 0 1
    outer loop
      vertex -22 -13.5938 2
      vertex -7.02587 -7.80302 2
      vertex -8.49468 -6.17174 2
    endloop
  endfacet
  facet normal 0 0 1
    outer loop
      vertex -22.7344 -12.125 2
      vertex -8.49468 -6.17174 2
      vertex -9.59223 -4.27073 2
    endloop
  endfacet
  facet normal 0 0 1
    outer loop
      vertex -24.0479 -6.0625 2
      vertex -9.59223 -4.27073 2
      vertex -10.2705 -2.18307 2
    endloop
  endfacet
  facet normal 0 0 1
    outer loop
      vertex -3.24468 -9.98609 2
      vertex -11.9072 -22.732 2
      vertex -3.24742 -24.8969 2
    endloop
  endfacet
  facet normal -0 0 1
    outer loop
      vertex -24.25 -2.02083 2
      vertex -10.2705 -2.18307 2
      vertex -10.5 0 2
    endloop
  endfacet
  facet normal -0 0 1
    outer loop
      vertex -18.8948 17.1771 2
      vertex -8.49468 6.17174 2
      vertex -17.1771 18.1875 2
    endloop
  endfacet
  facet normal -0 0 1
    outer loop
      vertex -20.2083 16.1667 2
      vertex -8.49468 6.17174 2
      vertex -18.8948 17.1771 2
    endloop
  endfacet
  facet normal 0 0 1
    outer loop
      vertex -10.2705 -2.18307 2
      vertex -24.25 -2.02083 2
      vertex -24.0479 -6.0625 2
    endloop
  endfacet
  facet normal -0 0 1
    outer loop
      vertex -22.7344 12.125 2
      vertex -8.49468 6.17174 2
      vertex -20.2083 16.1667 2
    endloop
  endfacet
  facet normal 0 0 1
    outer loop
      vertex -9.59223 -4.27073 2
      vertex -24.0479 -6.0625 2
      vertex -22.7344 -12.125 2
    endloop
  endfacet
  facet normal 0 0 1
    outer loop
      vertex -8.49468 6.17174 2
      vertex -22.7344 12.125 2
      vertex -9.59223 4.27073 2
    endloop
  endfacet
  facet normal 0 0 1
    outer loop
      vertex -7.02587 -7.80302 2
      vertex -22 -13.5938 2
      vertex -18.4021 -19.4845 2
    endloop
  endfacet
  facet normal 0 0 1
    outer loop
      vertex -9.59223 4.27073 2
      vertex -24.0479 6.0625 2
      vertex -10.2705 2.18307 2
    endloop
  endfacet
  facet normal -0 0 1
    outer loop
      vertex -24.0479 6.0625 2
      vertex -9.59223 4.27073 2
      vertex -22.7344 12.125 2
    endloop
  endfacet
  facet normal 0 0 1
    outer loop
      vertex -5.25 -9.09327 2
      vertex -14.6134 -21.6495 2
      vertex -11.9072 -22.732 2
    endloop
  endfacet
  facet normal 0 0 1
    outer loop
      vertex -22.7344 12.125 2
      vertex -20.2083 16.1667 2
      vertex -21.2188 15.1562 2
    endloop
  endfacet
  facet normal 0 0 1
    outer loop
      vertex -18.4021 -19.4845 2
      vertex -22 -13.5938 2
      vertex -20.2423 -18.4021 2
    endloop
  endfacet
  facet normal 0 0 1
    outer loop
      vertex -20.2423 -18.4021 2
      vertex -22 -13.5938 2
      vertex -21.6495 -17.3196 2
    endloop
  endfacet
  facet normal 0 0 1
    outer loop
      vertex -24.25 2.02083 2
      vertex -10.2705 2.18307 2
      vertex -24.0479 6.0625 2
    endloop
  endfacet
  facet normal 0 0 1
    outer loop
      vertex -10.5 0 2
      vertex -24.25 2.02083 2
      vertex -24.25 -2.02083 2
    endloop
  endfacet
  facet normal 0 0 1
    outer loop
      vertex -10.2705 2.18307 2
      vertex -24.25 2.02083 2
      vertex -10.5 0 2
    endloop
  endfacet
  facet normal 0 0 1
    outer loop
      vertex -7.02587 -7.80302 2
      vertex -18.4021 -19.4845 2
      vertex -16.7784 -20.567 2
    endloop
  endfacet
  facet normal 0 0 1
    outer loop
      vertex -7.02587 -7.80302 2
      vertex -16.7784 -20.567 2
      vertex -14.6134 -21.6495 2
    endloop
  endfacet
  facet normal 0 0 1
    outer loop
      vertex -8.49468 -6.17174 2
      vertex -22.7344 -12.125 2
      vertex -22 -13.5938 2
    endloop
  endfacet
  facet normal -0.998754 -0.0499142 0
    outer loop
      vertex 24.0479 6.0625 2
      vertex 24.101 5 13
      vertex 24.0479 6.0625 28
    endloop
  endfacet
  facet normal -0.998752 -0.0499417 -2.66373e-06
    outer loop
      vertex 24.25 2.02083 2
      vertex 24.101 5 13
      vertex 24.0479 6.0625 2
    endloop
  endfacet
  facet normal -0.998752 -0.0499515 0
    outer loop
      vertex 24.101 5 13
      vertex 24.25 2.02083 2
      vertex 24.25 2.02083 13
    endloop
  endfacet
  facet normal -0.998754 -0.0499142 0
    outer loop
      vertex 24.0479 6.0625 28
      vertex 24.101 5 13
      vertex 24.101 5 28
    endloop
  endfacet
  facet normal -0.977325 -0.211747 0
    outer loop
      vertex 24.0479 6.0625 2
      vertex 22.7344 12.125 28
      vertex 22.7344 12.125 2
    endloop
  endfacet
  facet normal -0.977325 -0.211747 0
    outer loop
      vertex 22.7344 12.125 28
      vertex 24.0479 6.0625 2
      vertex 24.0479 6.0625 28
    endloop
  endfacet
  facet normal -0.894427 -0.447214 0
    outer loop
      vertex 21.2188 15.1562 2
      vertex 21.2969 15 28
      vertex 21.2188 15.1562 32.4742
    endloop
  endfacet
  facet normal -0.894427 -0.447214 -3.02398e-17
    outer loop
      vertex 22.7344 12.125 2
      vertex 21.2969 15 28
      vertex 21.2188 15.1562 2
    endloop
  endfacet
  facet normal -0.894427 -0.447214 0
    outer loop
      vertex 21.2969 15 28
      vertex 22.7344 12.125 2
      vertex 22.7344 12.125 28
    endloop
  endfacet
  facet normal -0.894427 -0.447214 0
    outer loop
      vertex 21.2188 15.1562 32.4742
      vertex 21.2969 15 28
      vertex 21.2969 15 32.4742
    endloop
  endfacet
  facet normal -0.707107 -0.707107 0
    outer loop
      vertex 21.2188 15.1562 2
      vertex 20.2083 16.1667 32.4742
      vertex 20.2083 16.1667 2
    endloop
  endfacet
  facet normal -0.707107 -0.707107 0
    outer loop
      vertex 20.2083 16.1667 32.4742
      vertex 21.2188 15.1562 2
      vertex 21.2188 15.1562 32.4742
    endloop
  endfacet
  facet normal -0.609717 -0.79262 0
    outer loop
      vertex 18.8948 17.1771 2
      vertex 20.2083 16.1667 32.4742
      vertex 18.8948 17.1771 32.4742
    endloop
  endfacet
  facet normal -0.609717 -0.79262 -0
    outer loop
      vertex 20.2083 16.1667 32.4742
      vertex 18.8948 17.1771 2
      vertex 20.2083 16.1667 2
    endloop
  endfacet
  facet normal -0.507016 -0.861937 0
    outer loop
      vertex 17.1771 18.1875 2
      vertex 18.8948 17.1771 32.4742
      vertex 17.1771 18.1875 32.4742
    endloop
  endfacet
  facet normal -0.507016 -0.861937 -0
    outer loop
      vertex 18.8948 17.1771 32.4742
      vertex 17.1771 18.1875 2
      vertex 18.8948 17.1771 2
    endloop
  endfacet
  facet normal -0.5547 -0.83205 0
    outer loop
      vertex 15.6615 19.1979 2
      vertex 17.1771 18.1875 32.4742
      vertex 15.6615 19.1979 32.4742
    endloop
  endfacet
  facet normal -0.5547 -0.83205 -0
    outer loop
      vertex 17.1771 18.1875 32.4742
      vertex 15.6615 19.1979 2
      vertex 17.1771 18.1875 2
    endloop
  endfacet
  facet normal -0.447196 -0.894436 0
    outer loop
      vertex 13.6406 20.2083 2
      vertex 15.6615 19.1979 32.4742
      vertex 13.6406 20.2083 32.4742
    endloop
  endfacet
  facet normal -0.447196 -0.894436 -0
    outer loop
      vertex 15.6615 19.1979 32.4742
      vertex 13.6406 20.2083 2
      vertex 15.6615 19.1979 2
    endloop
  endfacet
  facet normal -0.371422 -0.928464 0
    outer loop
      vertex 11.1146 21.2188 2
      vertex 13.6406 20.2083 32.4742
      vertex 11.1146 21.2188 32.4742
    endloop
  endfacet
  facet normal -0.371422 -0.928464 -0
    outer loop
      vertex 13.6406 20.2083 32.4742
      vertex 11.1146 21.2188 2
      vertex 13.6406 20.2083 2
    endloop
  endfacet
  facet normal -0.242531 -0.970144 0
    outer loop
      vertex 3.03125 23.2396 2
      vertex 11.1146 21.2188 32.4742
      vertex 3.03125 23.2396 32.4742
    endloop
  endfacet
  facet normal -0.242531 -0.970144 -0
    outer loop
      vertex 11.1146 21.2188 32.4742
      vertex 3.03125 23.2396 2
      vertex 11.1146 21.2188 2
    endloop
  endfacet
  facet normal 0 -1 0
    outer loop
      vertex -3.03125 23.2396 2
      vertex 3.03125 23.2396 32.4742
      vertex -3.03125 23.2396 32.4742
    endloop
  endfacet
  facet normal 0 -1 -0
    outer loop
      vertex 3.03125 23.2396 32.4742
      vertex -3.03125 23.2396 2
      vertex 3.03125 23.2396 2
    endloop
  endfacet
  facet normal -1 0 0
    outer loop
      vertex 24.25 -2.02083 2
      vertex 24.25 2.02083 13
      vertex 24.25 2.02083 2
    endloop
  endfacet
  facet normal -1 -0 0
    outer loop
      vertex 24.25 2.02083 13
      vertex 24.25 -2.02083 2
      vertex 24.25 -2.02083 13
    endloop
  endfacet
  facet normal 0.998752 -0.0499417 0
    outer loop
      vertex -24.25 2.02083 32.4742
      vertex -24.0479 6.0625 2
      vertex -24.0479 6.0625 32.4742
    endloop
  endfacet
  facet normal 0.998752 -0.0499417 0
    outer loop
      vertex -24.0479 6.0625 2
      vertex -24.25 2.02083 32.4742
      vertex -24.25 2.02083 2
    endloop
  endfacet
  facet normal 0.977325 -0.211747 0
    outer loop
      vertex -24.0479 6.0625 32.4742
      vertex -22.7344 12.125 2
      vertex -22.7344 12.125 32.4742
    endloop
  endfacet
  facet normal 0.977325 -0.211747 0
    outer loop
      vertex -22.7344 12.125 2
      vertex -24.0479 6.0625 32.4742
      vertex -24.0479 6.0625 2
    endloop
  endfacet
  facet normal 0.894427 -0.447214 0
    outer loop
      vertex -22.7344 12.125 32.4742
      vertex -21.2188 15.1562 2
      vertex -21.2188 15.1562 32.4742
    endloop
  endfacet
  facet normal 0.894427 -0.447214 0
    outer loop
      vertex -21.2188 15.1562 2
      vertex -22.7344 12.125 32.4742
      vertex -22.7344 12.125 2
    endloop
  endfacet
  facet normal 0.707107 -0.707107 0
    outer loop
      vertex -21.2188 15.1562 32.4742
      vertex -20.2083 16.1667 2
      vertex -20.2083 16.1667 32.4742
    endloop
  endfacet
  facet normal 0.707107 -0.707107 0
    outer loop
      vertex -20.2083 16.1667 2
      vertex -21.2188 15.1562 32.4742
      vertex -21.2188 15.1562 2
    endloop
  endfacet
  facet normal 0.609717 -0.79262 0
    outer loop
      vertex -20.2083 16.1667 2
      vertex -18.8948 17.1771 32.4742
      vertex -20.2083 16.1667 32.4742
    endloop
  endfacet
  facet normal 0.609717 -0.79262 0
    outer loop
      vertex -18.8948 17.1771 32.4742
      vertex -20.2083 16.1667 2
      vertex -18.8948 17.1771 2
    endloop
  endfacet
  facet normal 0.507016 -0.861937 0
    outer loop
      vertex -18.8948 17.1771 2
      vertex -17.1771 18.1875 32.4742
      vertex -18.8948 17.1771 32.4742
    endloop
  endfacet
  facet normal 0.507016 -0.861937 0
    outer loop
      vertex -17.1771 18.1875 32.4742
      vertex -18.8948 17.1771 2
      vertex -17.1771 18.1875 2
    endloop
  endfacet
  facet normal 0.5547 -0.83205 0
    outer loop
      vertex -17.1771 18.1875 2
      vertex -15.6615 19.1979 32.4742
      vertex -17.1771 18.1875 32.4742
    endloop
  endfacet
  facet normal 0.5547 -0.83205 0
    outer loop
      vertex -15.6615 19.1979 32.4742
      vertex -17.1771 18.1875 2
      vertex -15.6615 19.1979 2
    endloop
  endfacet
  facet normal 0.447196 -0.894436 0
    outer loop
      vertex -15.6615 19.1979 2
      vertex -13.6406 20.2083 32.4742
      vertex -15.6615 19.1979 32.4742
    endloop
  endfacet
  facet normal 0.447196 -0.894436 0
    outer loop
      vertex -13.6406 20.2083 32.4742
      vertex -15.6615 19.1979 2
      vertex -13.6406 20.2083 2
    endloop
  endfacet
  facet normal 0.371422 -0.928464 0
    outer loop
      vertex -13.6406 20.2083 2
      vertex -11.1146 21.2188 32.4742
      vertex -13.6406 20.2083 32.4742
    endloop
  endfacet
  facet normal 0.371422 -0.928464 0
    outer loop
      vertex -11.1146 21.2188 32.4742
      vertex -13.6406 20.2083 2
      vertex -11.1146 21.2188 2
    endloop
  endfacet
  facet normal 0.242531 -0.970144 0
    outer loop
      vertex -11.1146 21.2188 2
      vertex -3.03125 23.2396 32.4742
      vertex -11.1146 21.2188 32.4742
    endloop
  endfacet
  facet normal 0.242531 -0.970144 0
    outer loop
      vertex -3.03125 23.2396 32.4742
      vertex -11.1146 21.2188 2
      vertex -3.03125 23.2396 2
    endloop
  endfacet
  facet normal 1 -0 0
    outer loop
      vertex -24.25 -2.02083 32.4742
      vertex -24.25 2.02083 2
      vertex -24.25 2.02083 32.4742
    endloop
  endfacet
  facet normal 1 0 0
    outer loop
      vertex -24.25 2.02083 2
      vertex -24.25 -2.02083 32.4742
      vertex -24.25 -2.02083 2
    endloop
  endfacet
  facet normal -0.998752 0.0499515 0
    outer loop
      vertex 24.25 -2.02083 2
      vertex 24.101 -5 13
      vertex 24.25 -2.02083 13
    endloop
  endfacet
  facet normal -0.998752 0.0499417 -2.66373e-06
    outer loop
      vertex 24.0479 -6.0625 2
      vertex 24.101 -5 13
      vertex 24.25 -2.02083 2
    endloop
  endfacet
  facet normal -0.998754 0.0499142 0
    outer loop
      vertex 24.0479 -6.0625 28
      vertex 24.101 -5 13
      vertex 24.0479 -6.0625 2
    endloop
  endfacet
  facet normal -0.998754 0.0499142 0
    outer loop
      vertex 24.101 -5 13
      vertex 24.0479 -6.0625 28
      vertex 24.101 -5 28
    endloop
  endfacet
  facet normal -0.977325 0.211747 0
    outer loop
      vertex 22.7344 -12.125 2
      vertex 24.0479 -6.0625 28
      vertex 24.0479 -6.0625 2
    endloop
  endfacet
  facet normal -0.977325 0.211747 0
    outer loop
      vertex 24.0479 -6.0625 28
      vertex 22.7344 -12.125 2
      vertex 22.7344 -12.125 28
    endloop
  endfacet
  facet normal -0.894427 0.447214 0
    outer loop
      vertex 22.7344 -12.125 2
      vertex 21.2969 -15 28
      vertex 22.7344 -12.125 28
    endloop
  endfacet
  facet normal -0.894427 0.447214 -2.89798e-17
    outer loop
      vertex 21.2188 -15.1562 2
      vertex 21.2969 -15 28
      vertex 22.7344 -12.125 2
    endloop
  endfacet
  facet normal -0.894427 0.447214 0
    outer loop
      vertex 21.2188 -15.1562 32.4742
      vertex 21.2969 -15 28
      vertex 21.2188 -15.1562 2
    endloop
  endfacet
  facet normal -0.894427 0.447214 0
    outer loop
      vertex 21.2969 -15 28
      vertex 21.2188 -15.1562 32.4742
      vertex 21.2969 -15 32.4742
    endloop
  endfacet
  facet normal -0.707107 0.707107 0
    outer loop
      vertex 20.2083 -16.1667 2
      vertex 21.2188 -15.1562 32.4742
      vertex 21.2188 -15.1562 2
    endloop
  endfacet
  facet normal -0.707107 0.707107 0
    outer loop
      vertex 21.2188 -15.1562 32.4742
      vertex 20.2083 -16.1667 2
      vertex 20.2083 -16.1667 32.4742
    endloop
  endfacet
  facet normal -0.609717 0.79262 0
    outer loop
      vertex 20.2083 -16.1667 2
      vertex 18.8948 -17.1771 32.4742
      vertex 20.2083 -16.1667 32.4742
    endloop
  endfacet
  facet normal -0.609717 0.79262 0
    outer loop
      vertex 18.8948 -17.1771 32.4742
      vertex 20.2083 -16.1667 2
      vertex 18.8948 -17.1771 2
    endloop
  endfacet
  facet normal -0.507016 0.861937 0
    outer loop
      vertex 18.8948 -17.1771 2
      vertex 17.1771 -18.1875 32.4742
      vertex 18.8948 -17.1771 32.4742
    endloop
  endfacet
  facet normal -0.507016 0.861937 0
    outer loop
      vertex 17.1771 -18.1875 32.4742
      vertex 18.8948 -17.1771 2
      vertex 17.1771 -18.1875 2
    endloop
  endfacet
  facet normal -0.5547 0.83205 0
    outer loop
      vertex 17.1771 -18.1875 2
      vertex 15.6615 -19.1979 32.4742
      vertex 17.1771 -18.1875 32.4742
    endloop
  endfacet
  facet normal -0.5547 0.83205 0
    outer loop
      vertex 15.6615 -19.1979 32.4742
      vertex 17.1771 -18.1875 2
      vertex 15.6615 -19.1979 2
    endloop
  endfacet
  facet normal -0.447196 0.894436 0
    outer loop
      vertex 15.6615 -19.1979 2
      vertex 13.6406 -20.2083 32.4742
      vertex 15.6615 -19.1979 32.4742
    endloop
  endfacet
  facet normal -0.447196 0.894436 0
    outer loop
      vertex 13.6406 -20.2083 32.4742
      vertex 15.6615 -19.1979 2
      vertex 13.6406 -20.2083 2
    endloop
  endfacet
  facet normal -0.371422 0.928464 0
    outer loop
      vertex 13.6406 -20.2083 2
      vertex 11.1146 -21.2188 32.4742
      vertex 13.6406 -20.2083 32.4742
    endloop
  endfacet
  facet normal -0.371422 0.928464 0
    outer loop
      vertex 11.1146 -21.2188 32.4742
      vertex 13.6406 -20.2083 2
      vertex 11.1146 -21.2188 2
    endloop
  endfacet
  facet normal -0.242531 0.970144 0
    outer loop
      vertex 11.1146 -21.2188 2
      vertex 3.03125 -23.2396 32.4742
      vertex 11.1146 -21.2188 32.4742
    endloop
  endfacet
  facet normal -0.242531 0.970144 0
    outer loop
      vertex 3.03125 -23.2396 32.4742
      vertex 11.1146 -21.2188 2
      vertex 3.03125 -23.2396 2
    endloop
  endfacet
  facet normal 0 1 -0
    outer loop
      vertex 3.03125 -23.2396 2
      vertex 0 -23.2396 32.4742
      vertex 3.03125 -23.2396 32.4742
    endloop
  endfacet
  facet normal 0 1 0
    outer loop
      vertex 0 -23.2396 32.4742
      vertex 3.03125 -23.2396 2
      vertex 0 -23.2396 2
    endloop
  endfacet
  facet normal 0.998752 0.0499417 0
    outer loop
      vertex -24.0479 -6.0625 32.4742
      vertex -24.25 -2.02083 2
      vertex -24.25 -2.02083 32.4742
    endloop
  endfacet
  facet normal 0.998752 0.0499417 0
    outer loop
      vertex -24.25 -2.02083 2
      vertex -24.0479 -6.0625 32.4742
      vertex -24.0479 -6.0625 2
    endloop
  endfacet
  facet normal 0.977325 0.211747 0
    outer loop
      vertex -22.7344 -12.125 32.4742
      vertex -24.0479 -6.0625 2
      vertex -24.0479 -6.0625 32.4742
    endloop
  endfacet
  facet normal 0.977325 0.211747 0
    outer loop
      vertex -24.0479 -6.0625 2
      vertex -22.7344 -12.125 32.4742
      vertex -22.7344 -12.125 2
    endloop
  endfacet
  facet normal 0.894427 0.447214 0
    outer loop
      vertex -22 -13.5938 32.4742
      vertex -22.7344 -12.125 2
      vertex -22.7344 -12.125 32.4742
    endloop
  endfacet
  facet normal 0.894427 0.447214 0
    outer loop
      vertex -22.7344 -12.125 2
      vertex -22 -13.5938 32.4742
      vertex -22 -13.5938 2
    endloop
  endfacet
  facet normal 0 0 -1
    outer loop
      vertex 10.2705 -2.18307 -10.8247
      vertex 25.9794 -2.16495 -10.8247
      vertex 25.7629 -6.49485 -10.8247
    endloop
  endfacet
  facet normal 0 0 -1
    outer loop
      vertex 25.9794 -2.16495 -10.8247
      vertex 10.5 0 -10.8247
      vertex 25.9794 2.16495 -10.8247
    endloop
  endfacet
  facet normal 0 0 -1
    outer loop
      vertex 9.59223 -4.27073 -10.8247
      vertex 25.7629 -6.49485 -10.8247
      vertex 24.3557 -12.9897 -10.8247
    endloop
  endfacet
  facet normal -0 0 -1
    outer loop
      vertex 25.9794 -2.16495 -10.8247
      vertex 10.2705 -2.18307 -10.8247
      vertex 10.5 0 -10.8247
    endloop
  endfacet
  facet normal 0 0 -1
    outer loop
      vertex 21.6495 -17.3196 -10.8247
      vertex 24.3557 -12.9897 -10.8247
      vertex 22.732 -16.2371 -10.8247
    endloop
  endfacet
  facet normal 0 0 -1
    outer loop
      vertex 25.9794 2.16495 -10.8247
      vertex 10.2705 2.18307 -10.8247
      vertex 25.7629 6.49485 -10.8247
    endloop
  endfacet
  facet normal -0 0 -1
    outer loop
      vertex 24.3557 -12.9897 -10.8247
      vertex 21.6495 -17.3196 -10.8247
      vertex 8.49468 -6.17174 -10.8247
    endloop
  endfacet
  facet normal 0 0 -1
    outer loop
      vertex 9.59223 4.27073 -10.8247
      vertex 25.7629 6.49485 -10.8247
      vertex 10.2705 2.18307 -10.8247
    endloop
  endfacet
  facet normal 0 0 -1
    outer loop
      vertex 8.49468 -6.17174 -10.8247
      vertex 21.6495 -17.3196 -10.8247
      vertex 20.2423 -18.4021 -10.8247
    endloop
  endfacet
  facet normal -0 0 -1
    outer loop
      vertex 25.7629 6.49485 -10.8247
      vertex 9.59223 4.27073 -10.8247
      vertex 24.3557 12.9897 -10.8247
    endloop
  endfacet
  facet normal 0 0 -1
    outer loop
      vertex 8.49468 -6.17174 -10.8247
      vertex 20.2423 -18.4021 -10.8247
      vertex 18.4021 -19.4845 -10.8247
    endloop
  endfacet
  facet normal 0 0 -1
    outer loop
      vertex 8.49468 6.17174 -10.8247
      vertex 24.3557 12.9897 -10.8247
      vertex 9.59223 4.27073 -10.8247
    endloop
  endfacet
  facet normal 0 0 -1
    outer loop
      vertex 7.02587 -7.80302 -10.8247
      vertex 18.4021 -19.4845 -10.8247
      vertex 16.7784 -20.567 -10.8247
    endloop
  endfacet
  facet normal 0 -0 -1
    outer loop
      vertex 21.6495 17.3196 -10.8247
      vertex 24.3557 12.9897 -10.8247
      vertex 8.49468 6.17174 -10.8247
    endloop
  endfacet
  facet normal 0 0 -1
    outer loop
      vertex 7.02587 -7.80302 -10.8247
      vertex 16.7784 -20.567 -10.8247
      vertex 14.6134 -21.6495 -10.8247
    endloop
  endfacet
  facet normal 0 0 -1
    outer loop
      vertex 24.3557 12.9897 -10.8247
      vertex 21.6495 17.3196 -10.8247
      vertex 22.732 16.2371 -10.8247
    endloop
  endfacet
  facet normal 0 0 -1
    outer loop
      vertex 5.25 -9.09327 -10.8247
      vertex 14.6134 -21.6495 -10.8247
      vertex 11.9072 -22.732 -10.8247
    endloop
  endfacet
  facet normal -0 0 -1
    outer loop
      vertex 21.6495 17.3196 -10.8247
      vertex 8.49468 6.17174 -10.8247
      vertex 20.2423 18.4021 -10.8247
    endloop
  endfacet
  facet normal -0 0 -1
    outer loop
      vertex 20.2423 18.4021 -10.8247
      vertex 8.49468 6.17174 -10.8247
      vertex 18.4021 19.4845 -10.8247
    endloop
  endfacet
  facet normal 0 0 -1
    outer loop
      vertex 10.2705 2.18307 -10.8247
      vertex 25.9794 2.16495 -10.8247
      vertex 10.5 0 -10.8247
    endloop
  endfacet
  facet normal 0 0 -1
    outer loop
      vertex 25.7629 -6.49485 -10.8247
      vertex 9.59223 -4.27073 -10.8247
      vertex 10.2705 -2.18307 -10.8247
    endloop
  endfacet
  facet normal 0 0 -1
    outer loop
      vertex 24.3557 -12.9897 -10.8247
      vertex 8.49468 -6.17174 -10.8247
      vertex 9.59223 -4.27073 -10.8247
    endloop
  endfacet
  facet normal 0 0 -1
    outer loop
      vertex 18.4021 -19.4845 -10.8247
      vertex 7.02587 -7.80302 -10.8247
      vertex 8.49468 -6.17174 -10.8247
    endloop
  endfacet
  facet normal 0 0 -1
    outer loop
      vertex 14.6134 -21.6495 -10.8247
      vertex 5.25 -9.09327 -10.8247
      vertex 7.02587 -7.80302 -10.8247
    endloop
  endfacet
  facet normal 0 0 -1
    outer loop
      vertex 3.24468 -9.98609 -10.8247
      vertex 11.9072 -22.732 -10.8247
      vertex 3.24742 -24.8969 -10.8247
    endloop
  endfacet
  facet normal 0 0 -1
    outer loop
      vertex 11.9072 -22.732 -10.8247
      vertex 3.24468 -9.98609 -10.8247
      vertex 5.25 -9.09327 -10.8247
    endloop
  endfacet
  facet normal 0 0 -1
    outer loop
      vertex 3.24742 -24.8969 -10.8247
      vertex 1.09755 -10.4425 -10.8247
      vertex 3.24468 -9.98609 -10.8247
    endloop
  endfacet
  facet normal 0 0 -1
    outer loop
      vertex 3.24742 -24.8969 -10.8247
      vertex -1.09755 -10.4425 -10.8247
      vertex 1.09755 -10.4425 -10.8247
    endloop
  endfacet
  facet normal 0 0 -1
    outer loop
      vertex -3.24742 -24.8969 -10.8247
      vertex -1.09755 -10.4425 -10.8247
      vertex 3.24742 -24.8969 -10.8247
    endloop
  endfacet
  facet normal -0 0 -1
    outer loop
      vertex -1.09755 -10.4425 -10.8247
      vertex -3.24742 -24.8969 -10.8247
      vertex -3.24468 -9.98609 -10.8247
    endloop
  endfacet
  facet normal 0 0 -1
    outer loop
      vertex -11.9072 -22.732 -10.8247
      vertex -3.24468 -9.98609 -10.8247
      vertex -3.24742 -24.8969 -10.8247
    endloop
  endfacet
  facet normal -0 0 -1
    outer loop
      vertex -3.24468 -9.98609 -10.8247
      vertex -11.9072 -22.732 -10.8247
      vertex -5.25 -9.09327 -10.8247
    endloop
  endfacet
  facet normal 0 0 -1
    outer loop
      vertex -14.6134 -21.6495 -10.8247
      vertex -5.25 -9.09327 -10.8247
      vertex -11.9072 -22.732 -10.8247
    endloop
  endfacet
  facet normal -0 0 -1
    outer loop
      vertex -5.25 -9.09327 -10.8247
      vertex -14.6134 -21.6495 -10.8247
      vertex -7.02587 -7.80302 -10.8247
    endloop
  endfacet
  facet normal 0 0 -1
    outer loop
      vertex -16.7784 -20.567 -10.8247
      vertex -7.02587 -7.80302 -10.8247
      vertex -14.6134 -21.6495 -10.8247
    endloop
  endfacet
  facet normal -0 0 -1
    outer loop
      vertex -7.02587 -7.80302 -10.8247
      vertex -18.4021 -19.4845 -10.8247
      vertex -8.49468 -6.17174 -10.8247
    endloop
  endfacet
  facet normal 0 0 -1
    outer loop
      vertex -18.4021 -19.4845 -10.8247
      vertex -7.02587 -7.80302 -10.8247
      vertex -16.7784 -20.567 -10.8247
    endloop
  endfacet
  facet normal 0 0 -1
    outer loop
      vertex 7.02587 7.80302 -10.8247
      vertex 18.4021 19.4845 -10.8247
      vertex 8.49468 6.17174 -10.8247
    endloop
  endfacet
  facet normal -0 0 -1
    outer loop
      vertex 18.4021 19.4845 -10.8247
      vertex 7.02587 7.80302 -10.8247
      vertex 16.7784 20.567 -10.8247
    endloop
  endfacet
  facet normal -0 0 -1
    outer loop
      vertex 16.7784 20.567 -10.8247
      vertex 7.02587 7.80302 -10.8247
      vertex 14.6134 21.6495 -10.8247
    endloop
  endfacet
  facet normal 0 0 -1
    outer loop
      vertex 5.25 9.09327 -10.8247
      vertex 14.6134 21.6495 -10.8247
      vertex 7.02587 7.80302 -10.8247
    endloop
  endfacet
  facet normal -0 0 -1
    outer loop
      vertex 14.6134 21.6495 -10.8247
      vertex 5.25 9.09327 -10.8247
      vertex 11.9072 22.732 -10.8247
    endloop
  endfacet
  facet normal 0 0 -1
    outer loop
      vertex 3.24468 9.98609 -10.8247
      vertex 11.9072 22.732 -10.8247
      vertex 5.25 9.09327 -10.8247
    endloop
  endfacet
  facet normal -0 0 -1
    outer loop
      vertex 11.9072 22.732 -10.8247
      vertex 3.24468 9.98609 -10.8247
      vertex 3.24742 24.8969 -10.8247
    endloop
  endfacet
  facet normal 0 0 -1
    outer loop
      vertex 1.09755 10.4425 -10.8247
      vertex 3.24742 24.8969 -10.8247
      vertex 3.24468 9.98609 -10.8247
    endloop
  endfacet
  facet normal 0 0 -1
    outer loop
      vertex -1.09755 10.4425 -10.8247
      vertex 3.24742 24.8969 -10.8247
      vertex 1.09755 10.4425 -10.8247
    endloop
  endfacet
  facet normal 0 0 -1
    outer loop
      vertex -3.24742 24.8969 -10.8247
      vertex -1.09755 10.4425 -10.8247
      vertex -3.24468 9.98609 -10.8247
    endloop
  endfacet
  facet normal 0 0 -1
    outer loop
      vertex -1.09755 10.4425 -10.8247
      vertex -3.24742 24.8969 -10.8247
      vertex 3.24742 24.8969 -10.8247
    endloop
  endfacet
  facet normal 0 0 -1
    outer loop
      vertex -11.9072 22.732 -10.8247
      vertex -3.24468 9.98609 -10.8247
      vertex -5.25 9.09327 -10.8247
    endloop
  endfacet
  facet normal 0 0 -1
    outer loop
      vertex -14.6134 21.6495 -10.8247
      vertex -5.25 9.09327 -10.8247
      vertex -7.02587 7.80302 -10.8247
    endloop
  endfacet
  facet normal 0 0 -1
    outer loop
      vertex -18.4021 19.4845 -10.8247
      vertex -7.02587 7.80302 -10.8247
      vertex -8.49468 6.17174 -10.8247
    endloop
  endfacet
  facet normal 0 0 -1
    outer loop
      vertex -24.3557 12.9897 -10.8247
      vertex -8.49468 6.17174 -10.8247
      vertex -9.59223 4.27073 -10.8247
    endloop
  endfacet
  facet normal 0 0 -1
    outer loop
      vertex -25.7629 6.49485 -10.8247
      vertex -9.59223 4.27073 -10.8247
      vertex -10.2705 2.18307 -10.8247
    endloop
  endfacet
  facet normal 0 0 -1
    outer loop
      vertex -3.24468 9.98609 -10.8247
      vertex -11.9072 22.732 -10.8247
      vertex -3.24742 24.8969 -10.8247
    endloop
  endfacet
  facet normal 0 0 -1
    outer loop
      vertex -25.9794 2.16495 -10.8247
      vertex -10.2705 2.18307 -10.8247
      vertex -10.5 0 -10.8247
    endloop
  endfacet
  facet normal 0 0 -1
    outer loop
      vertex -20.2423 -18.4021 -10.8247
      vertex -8.49468 -6.17174 -10.8247
      vertex -18.4021 -19.4845 -10.8247
    endloop
  endfacet
  facet normal 0 0 -1
    outer loop
      vertex -21.6495 -17.3196 -10.8247
      vertex -8.49468 -6.17174 -10.8247
      vertex -20.2423 -18.4021 -10.8247
    endloop
  endfacet
  facet normal 0 0 -1
    outer loop
      vertex -25.9794 2.16495 -10.8247
      vertex -10.5 0 -10.8247
      vertex -25.9794 -2.16495 -10.8247
    endloop
  endfacet
  facet normal 0 0 -1
    outer loop
      vertex -24.3557 -12.9897 -10.8247
      vertex -8.49468 -6.17174 -10.8247
      vertex -21.6495 -17.3196 -10.8247
    endloop
  endfacet
  facet normal -0 0 -1
    outer loop
      vertex -10.2705 2.18307 -10.8247
      vertex -25.9794 2.16495 -10.8247
      vertex -25.7629 6.49485 -10.8247
    endloop
  endfacet
  facet normal 0 0 -1
    outer loop
      vertex -25.7629 -6.49485 -10.8247
      vertex -9.59223 -4.27073 -10.8247
      vertex -24.3557 -12.9897 -10.8247
    endloop
  endfacet
  facet normal 0 0 -1
    outer loop
      vertex -5.25 9.09327 -10.8247
      vertex -14.6134 21.6495 -10.8247
      vertex -11.9072 22.732 -10.8247
    endloop
  endfacet
  facet normal -0 0 -1
    outer loop
      vertex -9.59223 -4.27073 -10.8247
      vertex -25.7629 -6.49485 -10.8247
      vertex -10.2705 -2.18307 -10.8247
    endloop
  endfacet
  facet normal 0 0 -1
    outer loop
      vertex -9.59223 4.27073 -10.8247
      vertex -25.7629 6.49485 -10.8247
      vertex -24.3557 12.9897 -10.8247
    endloop
  endfacet
  facet normal -0 0 -1
    outer loop
      vertex -8.49468 -6.17174 -10.8247
      vertex -24.3557 -12.9897 -10.8247
      vertex -9.59223 -4.27073 -10.8247
    endloop
  endfacet
  facet normal 0 0 -1
    outer loop
      vertex -7.02587 7.80302 -10.8247
      vertex -16.7784 20.567 -10.8247
      vertex -14.6134 21.6495 -10.8247
    endloop
  endfacet
  facet normal 0 0 -1
    outer loop
      vertex -24.3557 -12.9897 -10.8247
      vertex -21.6495 -17.3196 -10.8247
      vertex -22.732 -16.2371 -10.8247
    endloop
  endfacet
  facet normal 0 0 -1
    outer loop
      vertex -7.02587 7.80302 -10.8247
      vertex -18.4021 19.4845 -10.8247
      vertex -16.7784 20.567 -10.8247
    endloop
  endfacet
  facet normal 0 0 -1
    outer loop
      vertex -25.9794 -2.16495 -10.8247
      vertex -10.2705 -2.18307 -10.8247
      vertex -25.7629 -6.49485 -10.8247
    endloop
  endfacet
  facet normal 0 0 -1
    outer loop
      vertex -8.49468 6.17174 -10.8247
      vertex -24.3557 12.9897 -10.8247
      vertex -21.6495 17.3196 -10.8247
    endloop
  endfacet
  facet normal 0 0 -1
    outer loop
      vertex -10.2705 -2.18307 -10.8247
      vertex -25.9794 -2.16495 -10.8247
      vertex -10.5 0 -10.8247
    endloop
  endfacet
  facet normal 0 0 -1
    outer loop
      vertex -8.49468 6.17174 -10.8247
      vertex -20.2423 18.4021 -10.8247
      vertex -18.4021 19.4845 -10.8247
    endloop
  endfacet
  facet normal 0 0 -1
    outer loop
      vertex -8.49468 6.17174 -10.8247
      vertex -21.6495 17.3196 -10.8247
      vertex -20.2423 18.4021 -10.8247
    endloop
  endfacet
  facet normal 0 0 -1
    outer loop
      vertex -21.6495 17.3196 -10.8247
      vertex -24.3557 12.9897 -10.8247
      vertex -22.732 16.2371 -10.8247
    endloop
  endfacet
  facet normal -0.951063 -0.308996 0
    outer loop
      vertex 10.2705 2.18307 -10.8247
      vertex 9.59223 4.27073 2
      vertex 9.59223 4.27073 -10.8247
    endloop
  endfacet
  facet normal -0.951063 -0.308996 0
    outer loop
      vertex 9.59223 4.27073 2
      vertex 10.2705 2.18307 -10.8247
      vertex 10.2705 2.18307 2
    endloop
  endfacet
  facet normal -0.99452 -0.104551 0
    outer loop
      vertex 10.5 0 -10.8247
      vertex 10.2705 2.18307 2
      vertex 10.2705 2.18307 -10.8247
    endloop
  endfacet
  facet normal -0.99452 -0.104551 0
    outer loop
      vertex 10.2705 2.18307 2
      vertex 10.5 0 -10.8247
      vertex 10.5 0 2
    endloop
  endfacet
  facet normal -0.951063 0.308996 0
    outer loop
      vertex 9.59223 -4.27073 -10.8247
      vertex 10.2705 -2.18307 2
      vertex 10.2705 -2.18307 -10.8247
    endloop
  endfacet
  facet normal -0.951063 0.308996 0
    outer loop
      vertex 10.2705 -2.18307 2
      vertex 9.59223 -4.27073 -10.8247
      vertex 9.59223 -4.27073 2
    endloop
  endfacet
  facet normal -0.406734 -0.913546 0
    outer loop
      vertex 3.24468 9.98609 -10.8247
      vertex 5.25 9.09327 2
      vertex 3.24468 9.98609 2
    endloop
  endfacet
  facet normal -0.406734 -0.913546 -0
    outer loop
      vertex 5.25 9.09327 2
      vertex 3.24468 9.98609 -10.8247
      vertex 5.25 9.09327 -10.8247
    endloop
  endfacet
  facet normal 0.587787 -0.809016 0
    outer loop
      vertex -7.02587 7.80302 -10.8247
      vertex -5.25 9.09327 2
      vertex -7.02587 7.80302 2
    endloop
  endfacet
  facet normal 0.587787 -0.809016 0
    outer loop
      vertex -5.25 9.09327 2
      vertex -7.02587 7.80302 -10.8247
      vertex -5.25 9.09327 -10.8247
    endloop
  endfacet
  facet normal 0.406734 -0.913546 0
    outer loop
      vertex -5.25 9.09327 -10.8247
      vertex -3.24468 9.98609 2
      vertex -5.25 9.09327 2
    endloop
  endfacet
  facet normal 0.406734 -0.913546 0
    outer loop
      vertex -3.24468 9.98609 2
      vertex -5.25 9.09327 -10.8247
      vertex -3.24468 9.98609 -10.8247
    endloop
  endfacet
  facet normal -0.743145 0.66913 0
    outer loop
      vertex 7.02587 -7.80302 -10.8247
      vertex 8.49468 -6.17174 2
      vertex 8.49468 -6.17174 -10.8247
    endloop
  endfacet
  facet normal -0.743145 0.66913 0
    outer loop
      vertex 8.49468 -6.17174 2
      vertex 7.02587 -7.80302 -10.8247
      vertex 7.02587 -7.80302 2
    endloop
  endfacet
  facet normal -0.587787 0.809016 0
    outer loop
      vertex 7.02587 -7.80302 -10.8247
      vertex 5.25 -9.09327 2
      vertex 7.02587 -7.80302 2
    endloop
  endfacet
  facet normal -0.587787 0.809016 0
    outer loop
      vertex 5.25 -9.09327 2
      vertex 7.02587 -7.80302 -10.8247
      vertex 5.25 -9.09327 -10.8247
    endloop
  endfacet
  facet normal 0.866025 0.5 0
    outer loop
      vertex -8.49468 -6.17174 2
      vertex -9.59223 -4.27073 -10.8247
      vertex -9.59223 -4.27073 2
    endloop
  endfacet
  facet normal 0.866025 0.5 0
    outer loop
      vertex -9.59223 -4.27073 -10.8247
      vertex -8.49468 -6.17174 2
      vertex -8.49468 -6.17174 -10.8247
    endloop
  endfacet
  facet normal -0.406734 0.913546 0
    outer loop
      vertex 5.25 -9.09327 -10.8247
      vertex 3.24468 -9.98609 2
      vertex 5.25 -9.09327 2
    endloop
  endfacet
  facet normal -0.406734 0.913546 0
    outer loop
      vertex 3.24468 -9.98609 2
      vertex 5.25 -9.09327 -10.8247
      vertex 3.24468 -9.98609 -10.8247
    endloop
  endfacet
  facet normal -0.207922 0.978145 0
    outer loop
      vertex 3.24468 -9.98609 -10.8247
      vertex 1.09755 -10.4425 2
      vertex 3.24468 -9.98609 2
    endloop
  endfacet
  facet normal -0.207922 0.978145 0
    outer loop
      vertex 1.09755 -10.4425 2
      vertex 3.24468 -9.98609 -10.8247
      vertex 1.09755 -10.4425 -10.8247
    endloop
  endfacet
  facet normal -0.587787 -0.809016 0
    outer loop
      vertex 5.25 9.09327 -10.8247
      vertex 7.02587 7.80302 2
      vertex 5.25 9.09327 2
    endloop
  endfacet
  facet normal -0.587787 -0.809016 -0
    outer loop
      vertex 7.02587 7.80302 2
      vertex 5.25 9.09327 -10.8247
      vertex 7.02587 7.80302 -10.8247
    endloop
  endfacet
  facet normal 0.951063 -0.308996 0
    outer loop
      vertex -10.2705 2.18307 2
      vertex -9.59223 4.27073 -10.8247
      vertex -9.59223 4.27073 2
    endloop
  endfacet
  facet normal 0.951063 -0.308996 0
    outer loop
      vertex -9.59223 4.27073 -10.8247
      vertex -10.2705 2.18307 2
      vertex -10.2705 2.18307 -10.8247
    endloop
  endfacet
  facet normal -0.99452 0.104551 0
    outer loop
      vertex 10.2705 -2.18307 -10.8247
      vertex 10.5 0 2
      vertex 10.5 0 -10.8247
    endloop
  endfacet
  facet normal -0.99452 0.104551 0
    outer loop
      vertex 10.5 0 2
      vertex 10.2705 -2.18307 -10.8247
      vertex 10.2705 -2.18307 2
    endloop
  endfacet
  facet normal 0.743145 -0.66913 0
    outer loop
      vertex -8.49468 6.17174 2
      vertex -7.02587 7.80302 -10.8247
      vertex -7.02587 7.80302 2
    endloop
  endfacet
  facet normal 0.743145 -0.66913 0
    outer loop
      vertex -7.02587 7.80302 -10.8247
      vertex -8.49468 6.17174 2
      vertex -8.49468 6.17174 -10.8247
    endloop
  endfacet
  facet normal 0 -1 0
    outer loop
      vertex -1.09755 10.4425 -10.8247
      vertex 1.09755 10.4425 2
      vertex -1.09755 10.4425 2
    endloop
  endfacet
  facet normal 0 -1 -0
    outer loop
      vertex 1.09755 10.4425 2
      vertex -1.09755 10.4425 -10.8247
      vertex 1.09755 10.4425 -10.8247
    endloop
  endfacet
  facet normal -0.866025 0.5 0
    outer loop
      vertex 8.49468 -6.17174 -10.8247
      vertex 9.59223 -4.27073 2
      vertex 9.59223 -4.27073 -10.8247
    endloop
  endfacet
  facet normal -0.866025 0.5 0
    outer loop
      vertex 9.59223 -4.27073 2
      vertex 8.49468 -6.17174 -10.8247
      vertex 8.49468 -6.17174 2
    endloop
  endfacet
  facet normal 0.207922 -0.978145 0
    outer loop
      vertex -3.24468 9.98609 -10.8247
      vertex -1.09755 10.4425 2
      vertex -3.24468 9.98609 2
    endloop
  endfacet
  facet normal 0.207922 -0.978145 0
    outer loop
      vertex -1.09755 10.4425 2
      vertex -3.24468 9.98609 -10.8247
      vertex -1.09755 10.4425 -10.8247
    endloop
  endfacet
  facet normal 0.406734 0.913546 -0
    outer loop
      vertex -3.24468 -9.98609 -10.8247
      vertex -5.25 -9.09327 2
      vertex -3.24468 -9.98609 2
    endloop
  endfacet
  facet normal 0.406734 0.913546 0
    outer loop
      vertex -5.25 -9.09327 2
      vertex -3.24468 -9.98609 -10.8247
      vertex -5.25 -9.09327 -10.8247
    endloop
  endfacet
  facet normal 0.587787 0.809016 -0
    outer loop
      vertex -5.25 -9.09327 -10.8247
      vertex -7.02587 -7.80302 2
      vertex -5.25 -9.09327 2
    endloop
  endfacet
  facet normal 0.587787 0.809016 0
    outer loop
      vertex -7.02587 -7.80302 2
      vertex -5.25 -9.09327 -10.8247
      vertex -7.02587 -7.80302 -10.8247
    endloop
  endfacet
  facet normal -0.743145 -0.66913 0
    outer loop
      vertex 8.49468 6.17174 -10.8247
      vertex 7.02587 7.80302 2
      vertex 7.02587 7.80302 -10.8247
    endloop
  endfacet
  facet normal -0.743145 -0.66913 0
    outer loop
      vertex 7.02587 7.80302 2
      vertex 8.49468 6.17174 -10.8247
      vertex 8.49468 6.17174 2
    endloop
  endfacet
  facet normal 0.99452 -0.104551 0
    outer loop
      vertex -10.5 0 2
      vertex -10.2705 2.18307 -10.8247
      vertex -10.2705 2.18307 2
    endloop
  endfacet
  facet normal 0.99452 -0.104551 0
    outer loop
      vertex -10.2705 2.18307 -10.8247
      vertex -10.5 0 2
      vertex -10.5 0 -10.8247
    endloop
  endfacet
  facet normal -0.866025 -0.5 0
    outer loop
      vertex 9.59223 4.27073 -10.8247
      vertex 8.49468 6.17174 2
      vertex 8.49468 6.17174 -10.8247
    endloop
  endfacet
  facet normal -0.866025 -0.5 0
    outer loop
      vertex 8.49468 6.17174 2
      vertex 9.59223 4.27073 -10.8247
      vertex 9.59223 4.27073 2
    endloop
  endfacet
  facet normal 0.207922 0.978145 -0
    outer loop
      vertex -1.09755 -10.4425 -10.8247
      vertex -3.24468 -9.98609 2
      vertex -1.09755 -10.4425 2
    endloop
  endfacet
  facet normal 0.207922 0.978145 0
    outer loop
      vertex -3.24468 -9.98609 2
      vertex -1.09755 -10.4425 -10.8247
      vertex -3.24468 -9.98609 -10.8247
    endloop
  endfacet
  facet normal 0 1 -0
    outer loop
      vertex 1.09755 -10.4425 -10.8247
      vertex -1.09755 -10.4425 2
      vertex 1.09755 -10.4425 2
    endloop
  endfacet
  facet normal 0 1 0
    outer loop
      vertex -1.09755 -10.4425 2
      vertex 1.09755 -10.4425 -10.8247
      vertex -1.09755 -10.4425 -10.8247
    endloop
  endfacet
  facet normal 0.951063 0.308996 0
    outer loop
      vertex -9.59223 -4.27073 2
      vertex -10.2705 -2.18307 -10.8247
      vertex -10.2705 -2.18307 2
    endloop
  endfacet
  facet normal 0.951063 0.308996 0
    outer loop
      vertex -10.2705 -2.18307 -10.8247
      vertex -9.59223 -4.27073 2
      vertex -9.59223 -4.27073 -10.8247
    endloop
  endfacet
  facet normal 0.743145 0.66913 0
    outer loop
      vertex -7.02587 -7.80302 2
      vertex -8.49468 -6.17174 -10.8247
      vertex -8.49468 -6.17174 2
    endloop
  endfacet
  facet normal 0.743145 0.66913 0
    outer loop
      vertex -8.49468 -6.17174 -10.8247
      vertex -7.02587 -7.80302 2
      vertex -7.02587 -7.80302 -10.8247
    endloop
  endfacet
  facet normal -0.207922 -0.978145 0
    outer loop
      vertex 1.09755 10.4425 -10.8247
      vertex 3.24468 9.98609 2
      vertex 1.09755 10.4425 2
    endloop
  endfacet
  facet normal -0.207922 -0.978145 -0
    outer loop
      vertex 3.24468 9.98609 2
      vertex 1.09755 10.4425 -10.8247
      vertex 3.24468 9.98609 -10.8247
    endloop
  endfacet
  facet normal 0.99452 0.104551 0
    outer loop
      vertex -10.2705 -2.18307 2
      vertex -10.5 0 -10.8247
      vertex -10.5 0 2
    endloop
  endfacet
  facet normal 0.99452 0.104551 0
    outer loop
      vertex -10.5 0 -10.8247
      vertex -10.2705 -2.18307 2
      vertex -10.2705 -2.18307 -10.8247
    endloop
  endfacet
  facet normal 0.866025 -0.5 0
    outer loop
      vertex -9.59223 4.27073 2
      vertex -8.49468 6.17174 -10.8247
      vertex -8.49468 6.17174 2
    endloop
  endfacet
  facet normal 0.866025 -0.5 0
    outer loop
      vertex -8.49468 6.17174 -10.8247
      vertex -9.59223 4.27073 2
      vertex -9.59223 4.27073 -10.8247
    endloop
  endfacet
  facet normal -1 0 0
    outer loop
      vertex 0 -24.8969 2
      vertex 0 -23.2396 32.4742
      vertex 0 -23.2396 2
    endloop
  endfacet
  facet normal -1 -0 0
    outer loop
      vertex 0 -23.2396 32.4742
      vertex 0 -24.8969 2
      vertex 0 -24.8969 32.4742
    endloop
  endfacet
  facet normal 1 -0 0
    outer loop
      vertex -22 -16.9691 32.4742
      vertex -22 -13.5938 2
      vertex -22 -13.5938 32.4742
    endloop
  endfacet
  facet normal 1 0 0
    outer loop
      vertex -22 -13.5938 2
      vertex -22 -16.9691 32.4742
      vertex -22 -16.9691 2
    endloop
  endfacet
  facet normal -0 0 1
    outer loop
      vertex 22.7344 12.125 28
      vertex 25.7629 6.49485 28
      vertex 24.3557 12.9897 28
    endloop
  endfacet
  facet normal 0 0 1
    outer loop
      vertex 25.7629 6.49485 28
      vertex 24.0479 6.0625 28
      vertex 25.8376 5 28
    endloop
  endfacet
  facet normal 0 0 1
    outer loop
      vertex 25.8376 5 28
      vertex 24.0479 6.0625 28
      vertex 24.101 5 28
    endloop
  endfacet
  facet normal 0 0 1
    outer loop
      vertex 22.7344 12.125 28
      vertex 24.3557 12.9897 28
      vertex 23.3505 15 28
    endloop
  endfacet
  facet normal 0 0 1
    outer loop
      vertex 25.7629 6.49485 28
      vertex 22.7344 12.125 28
      vertex 24.0479 6.0625 28
    endloop
  endfacet
  facet normal 0 -0 1
    outer loop
      vertex 22.7344 12.125 28
      vertex 23.3505 15 28
      vertex 21.2969 15 28
    endloop
  endfacet
  facet normal 0 -1 0
    outer loop
      vertex 21.2969 15 28
      vertex 23.3505 15 32.4742
      vertex 21.2969 15 32.4742
    endloop
  endfacet
  facet normal 0 -1 -0
    outer loop
      vertex 23.3505 15 32.4742
      vertex 21.2969 15 28
      vertex 23.3505 15 28
    endloop
  endfacet
  facet normal 0 -1 0
    outer loop
      vertex 24.101 5 13
      vertex 25.8376 5 28
      vertex 24.101 5 28
    endloop
  endfacet
  facet normal 0 -1 -0
    outer loop
      vertex 25.8376 5 28
      vertex 24.101 5 13
      vertex 25.8376 5 13
    endloop
  endfacet
  facet normal 0 0 1
    outer loop
      vertex 24.25 2.02083 13
      vertex 25.9794 2.16495 13
      vertex 25.8376 5 13
    endloop
  endfacet
  facet normal 0 0 1
    outer loop
      vertex 25.9794 2.16495 13
      vertex 24.25 2.02083 13
      vertex 25.9794 -2.16495 13
    endloop
  endfacet
  facet normal -0 0 1
    outer loop
      vertex 24.25 -2.02083 13
      vertex 25.9794 -2.16495 13
      vertex 24.25 2.02083 13
    endloop
  endfacet
  facet normal 0 -0 1
    outer loop
      vertex 24.25 2.02083 13
      vertex 25.8376 5 13
      vertex 24.101 5 13
    endloop
  endfacet
  facet normal 0 0 1
    outer loop
      vertex 25.9794 -2.16495 13
      vertex 24.25 -2.02083 13
      vertex 25.8376 -5 13
    endloop
  endfacet
  facet normal 0 0 1
    outer loop
      vertex 25.8376 -5 13
      vertex 24.25 -2.02083 13
      vertex 24.101 -5 13
    endloop
  endfacet
  facet normal 0 1 -0
    outer loop
      vertex 25.8376 -5 13
      vertex 24.101 -5 28
      vertex 25.8376 -5 28
    endloop
  endfacet
  facet normal 0 1 0
    outer loop
      vertex 24.101 -5 28
      vertex 25.8376 -5 13
      vertex 24.101 -5 13
    endloop
  endfacet
  facet normal -0 0 1
    outer loop
      vertex 24.0479 -6.0625 28
      vertex 25.7629 -6.49485 28
      vertex 25.8376 -5 28
    endloop
  endfacet
  facet normal 0 0 1
    outer loop
      vertex 24.0479 -6.0625 28
      vertex 25.8376 -5 28
      vertex 24.101 -5 28
    endloop
  endfacet
  facet normal 0 0 1
    outer loop
      vertex 22.7344 -12.125 28
      vertex 25.7629 -6.49485 28
      vertex 24.0479 -6.0625 28
    endloop
  endfacet
  facet normal 0 0 1
    outer loop
      vertex 25.7629 -6.49485 28
      vertex 22.7344 -12.125 28
      vertex 24.3557 -12.9897 28
    endloop
  endfacet
  facet normal 0 0 1
    outer loop
      vertex 24.3557 -12.9897 28
      vertex 22.7344 -12.125 28
      vertex 23.3505 -15 28
    endloop
  endfacet
  facet normal 0 0 1
    outer loop
      vertex 23.3505 -15 28
      vertex 22.7344 -12.125 28
      vertex 21.2969 -15 28
    endloop
  endfacet
  facet normal 0 1 -0
    outer loop
      vertex 23.3505 -15 28
      vertex 21.2969 -15 32.4742
      vertex 23.3505 -15 32.4742
    endloop
  endfacet
  facet normal 0 1 0
    outer loop
      vertex 21.2969 -15 32.4742
      vertex 23.3505 -15 28
      vertex 21.2969 -15 28
    endloop
  endfacet
endsolid OpenSCAD_Model
