solid OpenSCAD_Model
  facet normal 0 0 -1
    outer loop
      vertex 10.2705 -2.18307 0
      vertex 25.9592 -2.16327 0
      vertex 25.7428 -6.4898 0
    endloop
  endfacet
  facet normal 0 0 -1
    outer loop
      vertex 25.9592 -2.16327 0
      vertex 10.5 0 0
      vertex 25.9592 2.16327 0
    endloop
  endfacet
  facet normal 0 0 -1
    outer loop
      vertex 9.59223 -4.27073 0
      vertex 25.7428 -6.4898 0
      vertex 24.3367 -12.9796 0
    endloop
  endfacet
  facet normal -0 0 -1
    outer loop
      vertex 25.9592 -2.16327 0
      vertex 10.2705 -2.18307 0
      vertex 10.5 0 0
    endloop
  endfacet
  facet normal 0 0 -1
    outer loop
      vertex 21.6327 -17.3061 0
      vertex 24.3367 -12.9796 0
      vertex 22.7143 -16.2245 0
    endloop
  endfacet
  facet normal 0 0 -1
    outer loop
      vertex 25.9592 2.16327 0
      vertex 10.2705 2.18307 0
      vertex 25.7428 6.4898 0
    endloop
  endfacet
  facet normal -0 0 -1
    outer loop
      vertex 24.3367 -12.9796 0
      vertex 21.6327 -17.3061 0
      vertex 8.49468 -6.17174 0
    endloop
  endfacet
  facet normal 0 0 -1
    outer loop
      vertex 9.59223 4.27073 0
      vertex 25.7428 6.4898 0
      vertex 10.2705 2.18307 0
    endloop
  endfacet
  facet normal 0 0 -1
    outer loop
      vertex 8.49468 -6.17174 0
      vertex 21.6327 -17.3061 0
      vertex 20.2265 -18.3878 0
    endloop
  endfacet
  facet normal -0 0 -1
    outer loop
      vertex 25.7428 6.4898 0
      vertex 9.59223 4.27073 0
      vertex 24.3367 12.9796 0
    endloop
  endfacet
  facet normal 0 0 -1
    outer loop
      vertex 8.49468 -6.17174 0
      vertex 20.2265 -18.3878 0
      vertex 18.3878 -19.4694 0
    endloop
  endfacet
  facet normal 0 0 -1
    outer loop
      vertex 8.49468 6.17174 0
      vertex 24.3367 12.9796 0
      vertex 9.59223 4.27073 0
    endloop
  endfacet
  facet normal 0 0 -1
    outer loop
      vertex 7.02587 -7.80302 0
      vertex 18.3878 -19.4694 0
      vertex 16.7653 -20.551 0
    endloop
  endfacet
  facet normal 0 -0 -1
    outer loop
      vertex 21.6327 17.3061 0
      vertex 24.3367 12.9796 0
      vertex 8.49468 6.17174 0
    endloop
  endfacet
  facet normal 0 0 -1
    outer loop
      vertex 7.02587 -7.80302 0
      vertex 16.7653 -20.551 0
      vertex 14.602 -21.6327 0
    endloop
  endfacet
  facet normal 0 0 -1
    outer loop
      vertex 24.3367 12.9796 0
      vertex 21.6327 17.3061 0
      vertex 22.7143 16.2245 0
    endloop
  endfacet
  facet normal 0 0 -1
    outer loop
      vertex 5.25 -9.09327 0
      vertex 14.602 -21.6327 0
      vertex 11.898 -22.7143 0
    endloop
  endfacet
  facet normal -0 0 -1
    outer loop
      vertex 21.6327 17.3061 0
      vertex 8.49468 6.17174 0
      vertex 20.2265 18.3878 0
    endloop
  endfacet
  facet normal -0 0 -1
    outer loop
      vertex 20.2265 18.3878 0
      vertex 8.49468 6.17174 0
      vertex 18.3878 19.4694 0
    endloop
  endfacet
  facet normal 0 0 -1
    outer loop
      vertex 10.2705 2.18307 0
      vertex 25.9592 2.16327 0
      vertex 10.5 0 0
    endloop
  endfacet
  facet normal 0 0 -1
    outer loop
      vertex 25.7428 -6.4898 0
      vertex 9.59223 -4.27073 0
      vertex 10.2705 -2.18307 0
    endloop
  endfacet
  facet normal 0 0 -1
    outer loop
      vertex 24.3367 -12.9796 0
      vertex 8.49468 -6.17174 0
      vertex 9.59223 -4.27073 0
    endloop
  endfacet
  facet normal 0 0 -1
    outer loop
      vertex 18.3878 -19.4694 0
      vertex 7.02587 -7.80302 0
      vertex 8.49468 -6.17174 0
    endloop
  endfacet
  facet normal 0 0 -1
    outer loop
      vertex 14.602 -21.6327 0
      vertex 5.25 -9.09327 0
      vertex 7.02587 -7.80302 0
    endloop
  endfacet
  facet normal 0 0 -1
    outer loop
      vertex 3.24468 -9.98609 0
      vertex 11.898 -22.7143 0
      vertex 3.2449 -24.8776 0
    endloop
  endfacet
  facet normal 0 0 -1
    outer loop
      vertex 11.898 -22.7143 0
      vertex 3.24468 -9.98609 0
      vertex 5.25 -9.09327 0
    endloop
  endfacet
  facet normal 0 0 -1
    outer loop
      vertex 3.2449 -24.8776 0
      vertex 1.09755 -10.4425 0
      vertex 3.24468 -9.98609 0
    endloop
  endfacet
  facet normal 0 0 -1
    outer loop
      vertex 3.2449 -24.8776 0
      vertex -1.09755 -10.4425 0
      vertex 1.09755 -10.4425 0
    endloop
  endfacet
  facet normal 0 0 -1
    outer loop
      vertex -3.2449 -24.8776 0
      vertex -1.09755 -10.4425 0
      vertex 3.2449 -24.8776 0
    endloop
  endfacet
  facet normal -0 0 -1
    outer loop
      vertex -1.09755 -10.4425 0
      vertex -3.2449 -24.8776 0
      vertex -3.24468 -9.98609 0
    endloop
  endfacet
  facet normal 0 0 -1
    outer loop
      vertex -11.898 -22.7143 0
      vertex -3.24468 -9.98609 0
      vertex -3.2449 -24.8776 0
    endloop
  endfacet
  facet normal -0 0 -1
    outer loop
      vertex -3.24468 -9.98609 0
      vertex -11.898 -22.7143 0
      vertex -5.25 -9.09327 0
    endloop
  endfacet
  facet normal 0 0 -1
    outer loop
      vertex -14.602 -21.6327 0
      vertex -5.25 -9.09327 0
      vertex -11.898 -22.7143 0
    endloop
  endfacet
  facet normal -0 0 -1
    outer loop
      vertex -5.25 -9.09327 0
      vertex -14.602 -21.6327 0
      vertex -7.02587 -7.80302 0
    endloop
  endfacet
  facet normal 0 0 -1
    outer loop
      vertex -16.7653 -20.551 0
      vertex -7.02587 -7.80302 0
      vertex -14.602 -21.6327 0
    endloop
  endfacet
  facet normal -0 0 -1
    outer loop
      vertex -7.02587 -7.80302 0
      vertex -18.3878 -19.4694 0
      vertex -8.49468 -6.17174 0
    endloop
  endfacet
  facet normal 0 0 -1
    outer loop
      vertex -18.3878 -19.4694 0
      vertex -7.02587 -7.80302 0
      vertex -16.7653 -20.551 0
    endloop
  endfacet
  facet normal 0 0 -1
    outer loop
      vertex 7.02587 7.80302 0
      vertex 18.3878 19.4694 0
      vertex 8.49468 6.17174 0
    endloop
  endfacet
  facet normal -0 0 -1
    outer loop
      vertex 18.3878 19.4694 0
      vertex 7.02587 7.80302 0
      vertex 16.7653 20.551 0
    endloop
  endfacet
  facet normal -0 0 -1
    outer loop
      vertex 16.7653 20.551 0
      vertex 7.02587 7.80302 0
      vertex 14.602 21.6327 0
    endloop
  endfacet
  facet normal 0 0 -1
    outer loop
      vertex 5.25 9.09327 0
      vertex 14.602 21.6327 0
      vertex 7.02587 7.80302 0
    endloop
  endfacet
  facet normal -0 0 -1
    outer loop
      vertex 14.602 21.6327 0
      vertex 5.25 9.09327 0
      vertex 11.898 22.7143 0
    endloop
  endfacet
  facet normal 0 0 -1
    outer loop
      vertex 3.24468 9.98609 0
      vertex 11.898 22.7143 0
      vertex 5.25 9.09327 0
    endloop
  endfacet
  facet normal -0 0 -1
    outer loop
      vertex 11.898 22.7143 0
      vertex 3.24468 9.98609 0
      vertex 3.2449 24.8776 0
    endloop
  endfacet
  facet normal 0 0 -1
    outer loop
      vertex 1.09755 10.4425 0
      vertex 3.2449 24.8776 0
      vertex 3.24468 9.98609 0
    endloop
  endfacet
  facet normal 0 0 -1
    outer loop
      vertex -1.09755 10.4425 0
      vertex 3.2449 24.8776 0
      vertex 1.09755 10.4425 0
    endloop
  endfacet
  facet normal 0 0 -1
    outer loop
      vertex -3.2449 24.8776 0
      vertex -1.09755 10.4425 0
      vertex -3.24468 9.98609 0
    endloop
  endfacet
  facet normal 0 0 -1
    outer loop
      vertex -1.09755 10.4425 0
      vertex -3.2449 24.8776 0
      vertex 3.2449 24.8776 0
    endloop
  endfacet
  facet normal 0 0 -1
    outer loop
      vertex -11.898 22.7143 0
      vertex -3.24468 9.98609 0
      vertex -5.25 9.09327 0
    endloop
  endfacet
  facet normal 0 0 -1
    outer loop
      vertex -14.602 21.6327 0
      vertex -5.25 9.09327 0
      vertex -7.02587 7.80302 0
    endloop
  endfacet
  facet normal 0 0 -1
    outer loop
      vertex -18.3878 19.4694 0
      vertex -7.02587 7.80302 0
      vertex -8.49468 6.17174 0
    endloop
  endfacet
  facet normal 0 0 -1
    outer loop
      vertex -24.3367 12.9796 0
      vertex -8.49468 6.17174 0
      vertex -9.59223 4.27073 0
    endloop
  endfacet
  facet normal 0 0 -1
    outer loop
      vertex -25.7428 6.4898 0
      vertex -9.59223 4.27073 0
      vertex -10.2705 2.18307 0
    endloop
  endfacet
  facet normal 0 0 -1
    outer loop
      vertex -3.24468 9.98609 0
      vertex -11.898 22.7143 0
      vertex -3.2449 24.8776 0
    endloop
  endfacet
  facet normal 0 0 -1
    outer loop
      vertex -25.9592 2.16327 0
      vertex -10.2705 2.18307 0
      vertex -10.5 0 0
    endloop
  endfacet
  facet normal 0 0 -1
    outer loop
      vertex -20.2265 -18.3878 0
      vertex -8.49468 -6.17174 0
      vertex -18.3878 -19.4694 0
    endloop
  endfacet
  facet normal 0 0 -1
    outer loop
      vertex -21.6327 -17.3061 0
      vertex -8.49468 -6.17174 0
      vertex -20.2265 -18.3878 0
    endloop
  endfacet
  facet normal 0 0 -1
    outer loop
      vertex -25.9592 2.16327 0
      vertex -10.5 0 0
      vertex -25.9592 -2.16327 0
    endloop
  endfacet
  facet normal 0 0 -1
    outer loop
      vertex -24.3367 -12.9796 0
      vertex -8.49468 -6.17174 0
      vertex -21.6327 -17.3061 0
    endloop
  endfacet
  facet normal -0 0 -1
    outer loop
      vertex -10.2705 2.18307 0
      vertex -25.9592 2.16327 0
      vertex -25.7428 6.4898 0
    endloop
  endfacet
  facet normal 0 0 -1
    outer loop
      vertex -25.7428 -6.4898 0
      vertex -9.59223 -4.27073 0
      vertex -24.3367 -12.9796 0
    endloop
  endfacet
  facet normal 0 0 -1
    outer loop
      vertex -5.25 9.09327 0
      vertex -14.602 21.6327 0
      vertex -11.898 22.7143 0
    endloop
  endfacet
  facet normal -0 0 -1
    outer loop
      vertex -9.59223 -4.27073 0
      vertex -25.7428 -6.4898 0
      vertex -10.2705 -2.18307 0
    endloop
  endfacet
  facet normal 0 0 -1
    outer loop
      vertex -9.59223 4.27073 0
      vertex -25.7428 6.4898 0
      vertex -24.3367 12.9796 0
    endloop
  endfacet
  facet normal -0 0 -1
    outer loop
      vertex -8.49468 -6.17174 0
      vertex -24.3367 -12.9796 0
      vertex -9.59223 -4.27073 0
    endloop
  endfacet
  facet normal 0 0 -1
    outer loop
      vertex -7.02587 7.80302 0
      vertex -16.7653 20.551 0
      vertex -14.602 21.6327 0
    endloop
  endfacet
  facet normal 0 0 -1
    outer loop
      vertex -24.3367 -12.9796 0
      vertex -21.6327 -17.3061 0
      vertex -22.7143 -16.2245 0
    endloop
  endfacet
  facet normal 0 0 -1
    outer loop
      vertex -7.02587 7.80302 0
      vertex -18.3878 19.4694 0
      vertex -16.7653 20.551 0
    endloop
  endfacet
  facet normal 0 0 -1
    outer loop
      vertex -25.9592 -2.16327 0
      vertex -10.2705 -2.18307 0
      vertex -25.7428 -6.4898 0
    endloop
  endfacet
  facet normal 0 0 -1
    outer loop
      vertex -8.49468 6.17174 0
      vertex -24.3367 12.9796 0
      vertex -21.6327 17.3061 0
    endloop
  endfacet
  facet normal 0 0 -1
    outer loop
      vertex -10.2705 -2.18307 0
      vertex -25.9592 -2.16327 0
      vertex -10.5 0 0
    endloop
  endfacet
  facet normal 0 0 -1
    outer loop
      vertex -8.49468 6.17174 0
      vertex -20.2265 18.3878 0
      vertex -18.3878 19.4694 0
    endloop
  endfacet
  facet normal 0 0 -1
    outer loop
      vertex -8.49468 6.17174 0
      vertex -21.6327 17.3061 0
      vertex -20.2265 18.3878 0
    endloop
  endfacet
  facet normal 0 0 -1
    outer loop
      vertex -21.6327 17.3061 0
      vertex -24.3367 12.9796 0
      vertex -22.7143 16.2245 0
    endloop
  endfacet
  facet normal 0 0 1
    outer loop
      vertex 21.4375 15.3125 32.449
      vertex 22.7143 16.2245 32.449
      vertex 21.6327 17.3061 32.449
    endloop
  endfacet
  facet normal 0 -0 1
    outer loop
      vertex 21.5938 15 32.449
      vertex 22.7143 16.2245 32.449
      vertex 21.4375 15.3125 32.449
    endloop
  endfacet
  facet normal 0 0 1
    outer loop
      vertex 22.7143 16.2245 32.449
      vertex 21.5938 15 32.449
      vertex 23.3265 15 32.449
    endloop
  endfacet
  facet normal 0 0 1
    outer loop
      vertex 21.6327 17.3061 32.449
      vertex 20.4167 16.3333 32.449
      vertex 21.4375 15.3125 32.449
    endloop
  endfacet
  facet normal 0 0 1
    outer loop
      vertex 20.2265 18.3878 32.449
      vertex 20.4167 16.3333 32.449
      vertex 21.6327 17.3061 32.449
    endloop
  endfacet
  facet normal 0 0 1
    outer loop
      vertex 20.2265 18.3878 32.449
      vertex 19.0896 17.3542 32.449
      vertex 20.4167 16.3333 32.449
    endloop
  endfacet
  facet normal 0 0 1
    outer loop
      vertex 18.3878 19.4694 32.449
      vertex 19.0896 17.3542 32.449
      vertex 20.2265 18.3878 32.449
    endloop
  endfacet
  facet normal 0 0 1
    outer loop
      vertex 18.3878 19.4694 32.449
      vertex 17.3542 18.375 32.449
      vertex 19.0896 17.3542 32.449
    endloop
  endfacet
  facet normal 0 0 1
    outer loop
      vertex 16.7653 20.551 32.449
      vertex 17.3542 18.375 32.449
      vertex 18.3878 19.4694 32.449
    endloop
  endfacet
  facet normal 0 0 1
    outer loop
      vertex 16.7653 20.551 32.449
      vertex 15.8229 19.3958 32.449
      vertex 17.3542 18.375 32.449
    endloop
  endfacet
  facet normal 0 0 1
    outer loop
      vertex 14.602 21.6327 32.449
      vertex 15.8229 19.3958 32.449
      vertex 16.7653 20.551 32.449
    endloop
  endfacet
  facet normal 0 0 1
    outer loop
      vertex 14.602 21.6327 32.449
      vertex 13.7812 20.4167 32.449
      vertex 15.8229 19.3958 32.449
    endloop
  endfacet
  facet normal 0 0 1
    outer loop
      vertex 11.898 22.7143 32.449
      vertex 13.7812 20.4167 32.449
      vertex 14.602 21.6327 32.449
    endloop
  endfacet
  facet normal 0 0 1
    outer loop
      vertex 11.898 22.7143 32.449
      vertex 11.2292 21.4375 32.449
      vertex 13.7812 20.4167 32.449
    endloop
  endfacet
  facet normal 0 0 1
    outer loop
      vertex 3.2449 24.8776 32.449
      vertex 11.2292 21.4375 32.449
      vertex 11.898 22.7143 32.449
    endloop
  endfacet
  facet normal 0 0 1
    outer loop
      vertex 3.2449 24.8776 32.449
      vertex 3.0625 23.4792 32.449
      vertex 11.2292 21.4375 32.449
    endloop
  endfacet
  facet normal 0 0 1
    outer loop
      vertex 3.2449 24.8776 32.449
      vertex -3.0625 23.4792 32.449
      vertex 3.0625 23.4792 32.449
    endloop
  endfacet
  facet normal -0 0 1
    outer loop
      vertex -3.2449 24.8776 32.449
      vertex -3.0625 23.4792 32.449
      vertex 3.2449 24.8776 32.449
    endloop
  endfacet
  facet normal 0 0 1
    outer loop
      vertex -3.2449 24.8776 32.449
      vertex -11.2292 21.4375 32.449
      vertex -3.0625 23.4792 32.449
    endloop
  endfacet
  facet normal -0 0 1
    outer loop
      vertex -11.898 22.7143 32.449
      vertex -11.2292 21.4375 32.449
      vertex -3.2449 24.8776 32.449
    endloop
  endfacet
  facet normal 0 0 1
    outer loop
      vertex -11.898 22.7143 32.449
      vertex -13.7812 20.4167 32.449
      vertex -11.2292 21.4375 32.449
    endloop
  endfacet
  facet normal -0 0 1
    outer loop
      vertex -14.602 21.6327 32.449
      vertex -13.7812 20.4167 32.449
      vertex -11.898 22.7143 32.449
    endloop
  endfacet
  facet normal 0 0 1
    outer loop
      vertex -14.602 21.6327 32.449
      vertex -15.8229 19.3958 32.449
      vertex -13.7812 20.4167 32.449
    endloop
  endfacet
  facet normal -0 0 1
    outer loop
      vertex -16.7653 20.551 32.449
      vertex -15.8229 19.3958 32.449
      vertex -14.602 21.6327 32.449
    endloop
  endfacet
  facet normal 0 0 1
    outer loop
      vertex -16.7653 20.551 32.449
      vertex -17.3542 18.375 32.449
      vertex -15.8229 19.3958 32.449
    endloop
  endfacet
  facet normal -0 0 1
    outer loop
      vertex -18.3878 19.4694 32.449
      vertex -17.3542 18.375 32.449
      vertex -16.7653 20.551 32.449
    endloop
  endfacet
  facet normal 0 0 1
    outer loop
      vertex -18.3878 19.4694 32.449
      vertex -19.0896 17.3542 32.449
      vertex -17.3542 18.375 32.449
    endloop
  endfacet
  facet normal -0 0 1
    outer loop
      vertex -20.2265 18.3878 32.449
      vertex -19.0896 17.3542 32.449
      vertex -18.3878 19.4694 32.449
    endloop
  endfacet
  facet normal 0 0 1
    outer loop
      vertex -20.2265 18.3878 32.449
      vertex -20.4167 16.3333 32.449
      vertex -19.0896 17.3542 32.449
    endloop
  endfacet
  facet normal -0 0 1
    outer loop
      vertex -21.6327 17.3061 32.449
      vertex -20.4167 16.3333 32.449
      vertex -20.2265 18.3878 32.449
    endloop
  endfacet
  facet normal 0 0 1
    outer loop
      vertex -20.4167 16.3333 32.449
      vertex -21.6327 17.3061 32.449
      vertex -21.4375 15.3125 32.449
    endloop
  endfacet
  facet normal -0 0 1
    outer loop
      vertex -22.7143 16.2245 32.449
      vertex -21.4375 15.3125 32.449
      vertex -21.6327 17.3061 32.449
    endloop
  endfacet
  facet normal 0 0 1
    outer loop
      vertex -24.3367 12.9796 32.449
      vertex -21.4375 15.3125 32.449
      vertex -22.7143 16.2245 32.449
    endloop
  endfacet
  facet normal 0 0 1
    outer loop
      vertex -21.4375 15.3125 32.449
      vertex -24.3367 12.9796 32.449
      vertex -22.9688 12.25 32.449
    endloop
  endfacet
  facet normal 0 0 1
    outer loop
      vertex -25.7428 6.4898 32.449
      vertex -22.9688 12.25 32.449
      vertex -24.3367 12.9796 32.449
    endloop
  endfacet
  facet normal 0 0 1
    outer loop
      vertex -22.9688 12.25 32.449
      vertex -25.7428 6.4898 32.449
      vertex -24.2958 6.125 32.449
    endloop
  endfacet
  facet normal 0 0 1
    outer loop
      vertex -25.9592 2.16327 32.449
      vertex -24.2958 6.125 32.449
      vertex -25.7428 6.4898 32.449
    endloop
  endfacet
  facet normal 0 0 1
    outer loop
      vertex -24.2958 6.125 32.449
      vertex -25.9592 2.16327 32.449
      vertex -24.5 2.04167 32.449
    endloop
  endfacet
  facet normal 0 0 1
    outer loop
      vertex -25.9592 0 32.449
      vertex -24.5 2.04167 32.449
      vertex -25.9592 2.16327 32.449
    endloop
  endfacet
  facet normal 0 0 1
    outer loop
      vertex -24.5 2.04167 32.449
      vertex -25.9592 0 32.449
      vertex -24.5 0 32.449
    endloop
  endfacet
  facet normal -0 0 1
    outer loop
      vertex 21.5938 -15 32.449
      vertex 22.7143 -16.2245 32.449
      vertex 23.3265 -15 32.449
    endloop
  endfacet
  facet normal 0 0 1
    outer loop
      vertex 22.7143 -16.2245 32.449
      vertex 21.5938 -15 32.449
      vertex 21.4375 -15.3125 32.449
    endloop
  endfacet
  facet normal 0 0 1
    outer loop
      vertex 22.7143 -16.2245 32.449
      vertex 21.4375 -15.3125 32.449
      vertex 21.6327 -17.3061 32.449
    endloop
  endfacet
  facet normal -0 0 1
    outer loop
      vertex 20.4167 -16.3333 32.449
      vertex 21.6327 -17.3061 32.449
      vertex 21.4375 -15.3125 32.449
    endloop
  endfacet
  facet normal 0 0 1
    outer loop
      vertex 20.4167 -16.3333 32.449
      vertex 20.2265 -18.3878 32.449
      vertex 21.6327 -17.3061 32.449
    endloop
  endfacet
  facet normal -0 0 1
    outer loop
      vertex 19.0896 -17.3542 32.449
      vertex 20.2265 -18.3878 32.449
      vertex 20.4167 -16.3333 32.449
    endloop
  endfacet
  facet normal 0 0 1
    outer loop
      vertex 19.0896 -17.3542 32.449
      vertex 18.3878 -19.4694 32.449
      vertex 20.2265 -18.3878 32.449
    endloop
  endfacet
  facet normal -0 0 1
    outer loop
      vertex 17.3542 -18.375 32.449
      vertex 18.3878 -19.4694 32.449
      vertex 19.0896 -17.3542 32.449
    endloop
  endfacet
  facet normal 0 0 1
    outer loop
      vertex 17.3542 -18.375 32.449
      vertex 16.7653 -20.551 32.449
      vertex 18.3878 -19.4694 32.449
    endloop
  endfacet
  facet normal -0 0 1
    outer loop
      vertex 15.8229 -19.3958 32.449
      vertex 16.7653 -20.551 32.449
      vertex 17.3542 -18.375 32.449
    endloop
  endfacet
  facet normal 0 0 1
    outer loop
      vertex 15.8229 -19.3958 32.449
      vertex 14.602 -21.6327 32.449
      vertex 16.7653 -20.551 32.449
    endloop
  endfacet
  facet normal -0 0 1
    outer loop
      vertex 13.7812 -20.4167 32.449
      vertex 14.602 -21.6327 32.449
      vertex 15.8229 -19.3958 32.449
    endloop
  endfacet
  facet normal 0 0 1
    outer loop
      vertex 13.7812 -20.4167 32.449
      vertex 11.898 -22.7143 32.449
      vertex 14.602 -21.6327 32.449
    endloop
  endfacet
  facet normal -0 0 1
    outer loop
      vertex 11.2292 -21.4375 32.449
      vertex 11.898 -22.7143 32.449
      vertex 13.7812 -20.4167 32.449
    endloop
  endfacet
  facet normal 0 0 1
    outer loop
      vertex 11.2292 -21.4375 32.449
      vertex 3.2449 -24.8776 32.449
      vertex 11.898 -22.7143 32.449
    endloop
  endfacet
  facet normal -0 0 1
    outer loop
      vertex 3.0625 -23.4792 32.449
      vertex 3.2449 -24.8776 32.449
      vertex 11.2292 -21.4375 32.449
    endloop
  endfacet
  facet normal 0 0 1
    outer loop
      vertex 0 -24.8776 32.449
      vertex 3.0625 -23.4792 32.449
      vertex 0 -23.4792 32.449
    endloop
  endfacet
  facet normal 0 0 1
    outer loop
      vertex 3.0625 -23.4792 32.449
      vertex 0 -24.8776 32.449
      vertex 3.2449 -24.8776 32.449
    endloop
  endfacet
  facet normal 0.998751 0.0499545 0
    outer loop
      vertex 25.9592 2.16327 2
      vertex 25.7428 6.4898 0
      vertex 25.7428 6.4898 2
    endloop
  endfacet
  facet normal 0.998751 0.0499545 0
    outer loop
      vertex 25.7428 6.4898 0
      vertex 25.9592 2.16327 2
      vertex 25.9592 2.16327 0
    endloop
  endfacet
  facet normal 0.977324 0.21175 0
    outer loop
      vertex 25.7428 6.4898 2
      vertex 24.3367 12.9796 0
      vertex 24.3367 12.9796 2
    endloop
  endfacet
  facet normal 0.977324 0.21175 0
    outer loop
      vertex 24.3367 12.9796 0
      vertex 25.7428 6.4898 2
      vertex 25.7428 6.4898 0
    endloop
  endfacet
  facet normal 0.894442 0.447184 -0
    outer loop
      vertex 23.3265 15 2
      vertex 22.7143 16.2245 32.449
      vertex 23.3265 15 32.449
    endloop
  endfacet
  facet normal 0.894442 0.447184 0
    outer loop
      vertex 22.7143 16.2245 32.449
      vertex 23.3265 15 2
      vertex 22.7143 16.2245 0
    endloop
  endfacet
  facet normal 0.894427 0.447214 -0
    outer loop
      vertex 24.3367 12.9796 0
      vertex 23.3265 15 2
      vertex 24.3367 12.9796 2
    endloop
  endfacet
  facet normal 0.894433 0.447203 1.39227e-05
    outer loop
      vertex 23.3265 15 2
      vertex 24.3367 12.9796 0
      vertex 22.7143 16.2245 0
    endloop
  endfacet
  facet normal 0.707107 0.707107 0
    outer loop
      vertex 22.7143 16.2245 32.449
      vertex 21.6327 17.3061 0
      vertex 21.6327 17.3061 32.449
    endloop
  endfacet
  facet normal 0.707107 0.707107 0
    outer loop
      vertex 21.6327 17.3061 0
      vertex 22.7143 16.2245 32.449
      vertex 22.7143 16.2245 0
    endloop
  endfacet
  facet normal 0.609713 0.792622 -0
    outer loop
      vertex 21.6327 17.3061 0
      vertex 20.2265 18.3878 32.449
      vertex 21.6327 17.3061 32.449
    endloop
  endfacet
  facet normal 0.609713 0.792622 0
    outer loop
      vertex 20.2265 18.3878 32.449
      vertex 21.6327 17.3061 0
      vertex 20.2265 18.3878 0
    endloop
  endfacet
  facet normal 0.507024 0.861932 -0
    outer loop
      vertex 20.2265 18.3878 0
      vertex 18.3878 19.4694 32.449
      vertex 20.2265 18.3878 32.449
    endloop
  endfacet
  facet normal 0.507024 0.861932 0
    outer loop
      vertex 18.3878 19.4694 32.449
      vertex 20.2265 18.3878 0
      vertex 18.3878 19.4694 0
    endloop
  endfacet
  facet normal 0.554677 0.832066 -0
    outer loop
      vertex 18.3878 19.4694 0
      vertex 16.7653 20.551 32.449
      vertex 18.3878 19.4694 32.449
    endloop
  endfacet
  facet normal 0.554677 0.832066 0
    outer loop
      vertex 16.7653 20.551 32.449
      vertex 18.3878 19.4694 0
      vertex 16.7653 20.551 0
    endloop
  endfacet
  facet normal 0.44723 0.894419 -0
    outer loop
      vertex 16.7653 20.551 0
      vertex 14.602 21.6327 32.449
      vertex 16.7653 20.551 32.449
    endloop
  endfacet
  facet normal 0.44723 0.894419 0
    outer loop
      vertex 14.602 21.6327 32.449
      vertex 16.7653 20.551 0
      vertex 14.602 21.6327 0
    endloop
  endfacet
  facet normal 0.371391 0.928477 -0
    outer loop
      vertex 14.602 21.6327 0
      vertex 11.898 22.7143 32.449
      vertex 14.602 21.6327 32.449
    endloop
  endfacet
  facet normal 0.371391 0.928477 0
    outer loop
      vertex 11.898 22.7143 32.449
      vertex 14.602 21.6327 0
      vertex 11.898 22.7143 0
    endloop
  endfacet
  facet normal 0.242538 0.970142 -0
    outer loop
      vertex 11.898 22.7143 0
      vertex 3.2449 24.8776 32.449
      vertex 11.898 22.7143 32.449
    endloop
  endfacet
  facet normal 0.242538 0.970142 0
    outer loop
      vertex 3.2449 24.8776 32.449
      vertex 11.898 22.7143 0
      vertex 3.2449 24.8776 0
    endloop
  endfacet
  facet normal 0 1 -0
    outer loop
      vertex 3.2449 24.8776 0
      vertex -3.2449 24.8776 32.449
      vertex 3.2449 24.8776 32.449
    endloop
  endfacet
  facet normal 0 1 0
    outer loop
      vertex -3.2449 24.8776 32.449
      vertex 3.2449 24.8776 0
      vertex -3.2449 24.8776 0
    endloop
  endfacet
  facet normal 1 -0 0
    outer loop
      vertex 25.9592 -2.16327 2
      vertex 25.9592 2.16327 0
      vertex 25.9592 2.16327 2
    endloop
  endfacet
  facet normal 1 0 0
    outer loop
      vertex 25.9592 2.16327 0
      vertex 25.9592 -2.16327 2
      vertex 25.9592 -2.16327 0
    endloop
  endfacet
  facet normal -0.998751 0.0499545 0
    outer loop
      vertex -25.9592 2.16327 0
      vertex -25.7428 6.4898 32.449
      vertex -25.7428 6.4898 0
    endloop
  endfacet
  facet normal -0.998751 0.0499545 0
    outer loop
      vertex -25.7428 6.4898 32.449
      vertex -25.9592 2.16327 0
      vertex -25.9592 2.16327 32.449
    endloop
  endfacet
  facet normal -0.977324 0.21175 0
    outer loop
      vertex -25.7428 6.4898 0
      vertex -24.3367 12.9796 32.449
      vertex -24.3367 12.9796 0
    endloop
  endfacet
  facet normal -0.977324 0.21175 0
    outer loop
      vertex -24.3367 12.9796 32.449
      vertex -25.7428 6.4898 0
      vertex -25.7428 6.4898 32.449
    endloop
  endfacet
  facet normal -0.894433 0.447203 0
    outer loop
      vertex -24.3367 12.9796 0
      vertex -22.7143 16.2245 32.449
      vertex -22.7143 16.2245 0
    endloop
  endfacet
  facet normal -0.894433 0.447203 0
    outer loop
      vertex -22.7143 16.2245 32.449
      vertex -24.3367 12.9796 0
      vertex -24.3367 12.9796 32.449
    endloop
  endfacet
  facet normal -0.707107 0.707107 0
    outer loop
      vertex -22.7143 16.2245 0
      vertex -21.6327 17.3061 32.449
      vertex -21.6327 17.3061 0
    endloop
  endfacet
  facet normal -0.707107 0.707107 0
    outer loop
      vertex -21.6327 17.3061 32.449
      vertex -22.7143 16.2245 0
      vertex -22.7143 16.2245 32.449
    endloop
  endfacet
  facet normal -0.609713 0.792622 0
    outer loop
      vertex -20.2265 18.3878 0
      vertex -21.6327 17.3061 32.449
      vertex -20.2265 18.3878 32.449
    endloop
  endfacet
  facet normal -0.609713 0.792622 0
    outer loop
      vertex -21.6327 17.3061 32.449
      vertex -20.2265 18.3878 0
      vertex -21.6327 17.3061 0
    endloop
  endfacet
  facet normal -0.507024 0.861932 0
    outer loop
      vertex -18.3878 19.4694 0
      vertex -20.2265 18.3878 32.449
      vertex -18.3878 19.4694 32.449
    endloop
  endfacet
  facet normal -0.507024 0.861932 0
    outer loop
      vertex -20.2265 18.3878 32.449
      vertex -18.3878 19.4694 0
      vertex -20.2265 18.3878 0
    endloop
  endfacet
  facet normal -0.554677 0.832066 0
    outer loop
      vertex -16.7653 20.551 0
      vertex -18.3878 19.4694 32.449
      vertex -16.7653 20.551 32.449
    endloop
  endfacet
  facet normal -0.554677 0.832066 0
    outer loop
      vertex -18.3878 19.4694 32.449
      vertex -16.7653 20.551 0
      vertex -18.3878 19.4694 0
    endloop
  endfacet
  facet normal -0.44723 0.894419 0
    outer loop
      vertex -14.602 21.6327 0
      vertex -16.7653 20.551 32.449
      vertex -14.602 21.6327 32.449
    endloop
  endfacet
  facet normal -0.44723 0.894419 0
    outer loop
      vertex -16.7653 20.551 32.449
      vertex -14.602 21.6327 0
      vertex -16.7653 20.551 0
    endloop
  endfacet
  facet normal -0.371391 0.928477 0
    outer loop
      vertex -11.898 22.7143 0
      vertex -14.602 21.6327 32.449
      vertex -11.898 22.7143 32.449
    endloop
  endfacet
  facet normal -0.371391 0.928477 0
    outer loop
      vertex -14.602 21.6327 32.449
      vertex -11.898 22.7143 0
      vertex -14.602 21.6327 0
    endloop
  endfacet
  facet normal -0.242538 0.970142 0
    outer loop
      vertex -3.2449 24.8776 0
      vertex -11.898 22.7143 32.449
      vertex -3.2449 24.8776 32.449
    endloop
  endfacet
  facet normal -0.242538 0.970142 0
    outer loop
      vertex -11.898 22.7143 32.449
      vertex -3.2449 24.8776 0
      vertex -11.898 22.7143 0
    endloop
  endfacet
  facet normal -1 0 0
    outer loop
      vertex -25.9592 2.16327 0
      vertex -25.9592 0 2
      vertex -25.9592 2.16327 32.449
    endloop
  endfacet
  facet normal -1 0 0
    outer loop
      vertex -25.9592 -2.16327 0
      vertex -25.9592 0 2
      vertex -25.9592 2.16327 0
    endloop
  endfacet
  facet normal -1 -0 0
    outer loop
      vertex -25.9592 0 2
      vertex -25.9592 -2.16327 0
      vertex -25.9592 -2.16327 2
    endloop
  endfacet
  facet normal -1 -0 0
    outer loop
      vertex -25.9592 2.16327 32.449
      vertex -25.9592 0 2
      vertex -25.9592 0 32.449
    endloop
  endfacet
  facet normal 0.998751 -0.0499545 0
    outer loop
      vertex 25.7428 -6.4898 2
      vertex 25.9592 -2.16327 0
      vertex 25.9592 -2.16327 2
    endloop
  endfacet
  facet normal 0.998751 -0.0499545 0
    outer loop
      vertex 25.9592 -2.16327 0
      vertex 25.7428 -6.4898 2
      vertex 25.7428 -6.4898 0
    endloop
  endfacet
  facet normal 0.977324 -0.21175 0
    outer loop
      vertex 24.3367 -12.9796 2
      vertex 25.7428 -6.4898 0
      vertex 25.7428 -6.4898 2
    endloop
  endfacet
  facet normal 0.977324 -0.21175 0
    outer loop
      vertex 25.7428 -6.4898 0
      vertex 24.3367 -12.9796 2
      vertex 24.3367 -12.9796 0
    endloop
  endfacet
  facet normal 0.894442 -0.447184 0
    outer loop
      vertex 23.3265 -15 32.449
      vertex 22.7143 -16.2245 32.449
      vertex 23.3265 -15 2
    endloop
  endfacet
  facet normal 0.894427 -0.447214 0
    outer loop
      vertex 23.3265 -15 2
      vertex 24.3367 -12.9796 0
      vertex 24.3367 -12.9796 2
    endloop
  endfacet
  facet normal 0.894433 -0.447203 1.39227e-05
    outer loop
      vertex 23.3265 -15 2
      vertex 22.7143 -16.2245 0
      vertex 24.3367 -12.9796 0
    endloop
  endfacet
  facet normal 0.894442 -0.447184 0
    outer loop
      vertex 22.7143 -16.2245 0
      vertex 23.3265 -15 2
      vertex 22.7143 -16.2245 32.449
    endloop
  endfacet
  facet normal 0.707107 -0.707107 0
    outer loop
      vertex 21.6327 -17.3061 32.449
      vertex 22.7143 -16.2245 0
      vertex 22.7143 -16.2245 32.449
    endloop
  endfacet
  facet normal 0.707107 -0.707107 0
    outer loop
      vertex 22.7143 -16.2245 0
      vertex 21.6327 -17.3061 32.449
      vertex 21.6327 -17.3061 0
    endloop
  endfacet
  facet normal 0.609713 -0.792622 0
    outer loop
      vertex 20.2265 -18.3878 0
      vertex 21.6327 -17.3061 32.449
      vertex 20.2265 -18.3878 32.449
    endloop
  endfacet
  facet normal 0.609713 -0.792622 0
    outer loop
      vertex 21.6327 -17.3061 32.449
      vertex 20.2265 -18.3878 0
      vertex 21.6327 -17.3061 0
    endloop
  endfacet
  facet normal 0.507024 -0.861932 0
    outer loop
      vertex 18.3878 -19.4694 0
      vertex 20.2265 -18.3878 32.449
      vertex 18.3878 -19.4694 32.449
    endloop
  endfacet
  facet normal 0.507024 -0.861932 0
    outer loop
      vertex 20.2265 -18.3878 32.449
      vertex 18.3878 -19.4694 0
      vertex 20.2265 -18.3878 0
    endloop
  endfacet
  facet normal 0.554677 -0.832066 0
    outer loop
      vertex 16.7653 -20.551 0
      vertex 18.3878 -19.4694 32.449
      vertex 16.7653 -20.551 32.449
    endloop
  endfacet
  facet normal 0.554677 -0.832066 0
    outer loop
      vertex 18.3878 -19.4694 32.449
      vertex 16.7653 -20.551 0
      vertex 18.3878 -19.4694 0
    endloop
  endfacet
  facet normal 0.44723 -0.894419 0
    outer loop
      vertex 14.602 -21.6327 0
      vertex 16.7653 -20.551 32.449
      vertex 14.602 -21.6327 32.449
    endloop
  endfacet
  facet normal 0.44723 -0.894419 0
    outer loop
      vertex 16.7653 -20.551 32.449
      vertex 14.602 -21.6327 0
      vertex 16.7653 -20.551 0
    endloop
  endfacet
  facet normal 0.371391 -0.928477 0
    outer loop
      vertex 11.898 -22.7143 0
      vertex 14.602 -21.6327 32.449
      vertex 11.898 -22.7143 32.449
    endloop
  endfacet
  facet normal 0.371391 -0.928477 0
    outer loop
      vertex 14.602 -21.6327 32.449
      vertex 11.898 -22.7143 0
      vertex 14.602 -21.6327 0
    endloop
  endfacet
  facet normal 0.242538 -0.970142 0
    outer loop
      vertex 3.2449 -24.8776 0
      vertex 11.898 -22.7143 32.449
      vertex 3.2449 -24.8776 32.449
    endloop
  endfacet
  facet normal 0.242538 -0.970142 0
    outer loop
      vertex 11.898 -22.7143 32.449
      vertex 3.2449 -24.8776 0
      vertex 11.898 -22.7143 0
    endloop
  endfacet
  facet normal 0 -1 0
    outer loop
      vertex -3.2449 -24.8776 2
      vertex -3.2449 -24.8776 0
      vertex 0 -24.8776 2
    endloop
  endfacet
  facet normal 0 -1 0
    outer loop
      vertex 0 -24.8776 2
      vertex 3.2449 -24.8776 32.449
      vertex 0 -24.8776 32.449
    endloop
  endfacet
  facet normal 0 -1 0
    outer loop
      vertex 0 -24.8776 2
      vertex 3.2449 -24.8776 0
      vertex 3.2449 -24.8776 32.449
    endloop
  endfacet
  facet normal 0 -1 0
    outer loop
      vertex 3.2449 -24.8776 0
      vertex 0 -24.8776 2
      vertex -3.2449 -24.8776 0
    endloop
  endfacet
  facet normal -0.998751 -0.0499545 0
    outer loop
      vertex -25.7428 -6.4898 0
      vertex -25.9592 -2.16327 2
      vertex -25.9592 -2.16327 0
    endloop
  endfacet
  facet normal -0.998751 -0.0499545 0
    outer loop
      vertex -25.9592 -2.16327 2
      vertex -25.7428 -6.4898 0
      vertex -25.7428 -6.4898 2
    endloop
  endfacet
  facet normal -0.977324 -0.21175 0
    outer loop
      vertex -24.3367 -12.9796 0
      vertex -25.7428 -6.4898 2
      vertex -25.7428 -6.4898 0
    endloop
  endfacet
  facet normal -0.977324 -0.21175 0
    outer loop
      vertex -25.7428 -6.4898 2
      vertex -24.3367 -12.9796 0
      vertex -24.3367 -12.9796 2
    endloop
  endfacet
  facet normal -0.894433 -0.447203 0
    outer loop
      vertex -22.7143 -16.2245 0
      vertex -24.3367 -12.9796 2
      vertex -24.3367 -12.9796 0
    endloop
  endfacet
  facet normal -0.894433 -0.447203 0
    outer loop
      vertex -24.3367 -12.9796 2
      vertex -22.7143 -16.2245 0
      vertex -22.7143 -16.2245 2
    endloop
  endfacet
  facet normal -0.707107 -0.707107 0
    outer loop
      vertex -21.6327 -17.3061 0
      vertex -22.7143 -16.2245 2
      vertex -22.7143 -16.2245 0
    endloop
  endfacet
  facet normal -0.707107 -0.707107 0
    outer loop
      vertex -22.7143 -16.2245 2
      vertex -21.6327 -17.3061 0
      vertex -21.6327 -17.3061 2
    endloop
  endfacet
  facet normal -0.609713 -0.792622 0
    outer loop
      vertex -21.6327 -17.3061 0
      vertex -20.2265 -18.3878 2
      vertex -21.6327 -17.3061 2
    endloop
  endfacet
  facet normal -0.609713 -0.792622 -0
    outer loop
      vertex -20.2265 -18.3878 2
      vertex -21.6327 -17.3061 0
      vertex -20.2265 -18.3878 0
    endloop
  endfacet
  facet normal -0.507024 -0.861932 0
    outer loop
      vertex -20.2265 -18.3878 0
      vertex -18.3878 -19.4694 2
      vertex -20.2265 -18.3878 2
    endloop
  endfacet
  facet normal -0.507024 -0.861932 -0
    outer loop
      vertex -18.3878 -19.4694 2
      vertex -20.2265 -18.3878 0
      vertex -18.3878 -19.4694 0
    endloop
  endfacet
  facet normal -0.554677 -0.832066 0
    outer loop
      vertex -18.3878 -19.4694 0
      vertex -16.7653 -20.551 2
      vertex -18.3878 -19.4694 2
    endloop
  endfacet
  facet normal -0.554677 -0.832066 -0
    outer loop
      vertex -16.7653 -20.551 2
      vertex -18.3878 -19.4694 0
      vertex -16.7653 -20.551 0
    endloop
  endfacet
  facet normal -0.44723 -0.894419 0
    outer loop
      vertex -16.7653 -20.551 0
      vertex -14.602 -21.6327 2
      vertex -16.7653 -20.551 2
    endloop
  endfacet
  facet normal -0.44723 -0.894419 -0
    outer loop
      vertex -14.602 -21.6327 2
      vertex -16.7653 -20.551 0
      vertex -14.602 -21.6327 0
    endloop
  endfacet
  facet normal -0.371391 -0.928477 0
    outer loop
      vertex -14.602 -21.6327 0
      vertex -11.898 -22.7143 2
      vertex -14.602 -21.6327 2
    endloop
  endfacet
  facet normal -0.371391 -0.928477 -0
    outer loop
      vertex -11.898 -22.7143 2
      vertex -14.602 -21.6327 0
      vertex -11.898 -22.7143 0
    endloop
  endfacet
  facet normal -0.242538 -0.970142 0
    outer loop
      vertex -11.898 -22.7143 0
      vertex -3.2449 -24.8776 2
      vertex -11.898 -22.7143 2
    endloop
  endfacet
  facet normal -0.242538 -0.970142 -0
    outer loop
      vertex -3.2449 -24.8776 2
      vertex -11.898 -22.7143 0
      vertex -3.2449 -24.8776 0
    endloop
  endfacet
  facet normal -0 0 1
    outer loop
      vertex 10.2705 2.18307 2
      vertex 25.9592 2.16327 2
      vertex 25.7428 6.4898 2
    endloop
  endfacet
  facet normal 0 0 1
    outer loop
      vertex 25.9592 2.16327 2
      vertex 10.5 0 2
      vertex 25.9592 -2.16327 2
    endloop
  endfacet
  facet normal 0 0 1
    outer loop
      vertex 21.5938 15 2
      vertex 25.7428 6.4898 2
      vertex 24.3367 12.9796 2
    endloop
  endfacet
  facet normal 0 0 1
    outer loop
      vertex 25.9592 2.16327 2
      vertex 10.2705 2.18307 2
      vertex 10.5 0 2
    endloop
  endfacet
  facet normal -0 0 1
    outer loop
      vertex 21.5938 15 2
      vertex 24.3367 12.9796 2
      vertex 23.3265 15 2
    endloop
  endfacet
  facet normal 0 0 1
    outer loop
      vertex 25.9592 -2.16327 2
      vertex 10.2705 -2.18307 2
      vertex 25.7428 -6.4898 2
    endloop
  endfacet
  facet normal 0 0 1
    outer loop
      vertex 25.7428 6.4898 2
      vertex 21.5938 15 2
      vertex 9.59223 4.27073 2
    endloop
  endfacet
  facet normal -0 0 1
    outer loop
      vertex 9.59223 -4.27073 2
      vertex 25.7428 -6.4898 2
      vertex 10.2705 -2.18307 2
    endloop
  endfacet
  facet normal 0 0 1
    outer loop
      vertex 20.4167 16.3333 2
      vertex 21.5938 15 2
      vertex 21.4375 15.3125 2
    endloop
  endfacet
  facet normal 0 -0 1
    outer loop
      vertex 21.5938 -15 2
      vertex 25.7428 -6.4898 2
      vertex 9.59223 -4.27073 2
    endloop
  endfacet
  facet normal 0 0 1
    outer loop
      vertex 21.5938 15 2
      vertex 20.4167 16.3333 2
      vertex 8.49468 6.17174 2
    endloop
  endfacet
  facet normal 0 0 1
    outer loop
      vertex 24.3367 -12.9796 2
      vertex 21.5938 -15 2
      vertex 23.3265 -15 2
    endloop
  endfacet
  facet normal 0 0 1
    outer loop
      vertex 8.49468 6.17174 2
      vertex 20.4167 16.3333 2
      vertex 19.0896 17.3542 2
    endloop
  endfacet
  facet normal 0 0 1
    outer loop
      vertex 25.7428 -6.4898 2
      vertex 21.5938 -15 2
      vertex 24.3367 -12.9796 2
    endloop
  endfacet
  facet normal 0 0 1
    outer loop
      vertex 8.49468 6.17174 2
      vertex 19.0896 17.3542 2
      vertex 17.3542 18.375 2
    endloop
  endfacet
  facet normal -0 0 1
    outer loop
      vertex 8.49468 -6.17174 2
      vertex 21.5938 -15 2
      vertex 9.59223 -4.27073 2
    endloop
  endfacet
  facet normal 0 0 1
    outer loop
      vertex 7.02587 7.80302 2
      vertex 17.3542 18.375 2
      vertex 15.8229 19.3958 2
    endloop
  endfacet
  facet normal 0 -0 1
    outer loop
      vertex 20.4167 -16.3333 2
      vertex 21.5938 -15 2
      vertex 8.49468 -6.17174 2
    endloop
  endfacet
  facet normal 0 0 1
    outer loop
      vertex 7.02587 7.80302 2
      vertex 15.8229 19.3958 2
      vertex 13.7812 20.4167 2
    endloop
  endfacet
  facet normal 0 0 1
    outer loop
      vertex 21.5938 -15 2
      vertex 20.4167 -16.3333 2
      vertex 21.4375 -15.3125 2
    endloop
  endfacet
  facet normal 0 0 1
    outer loop
      vertex 5.25 9.09327 2
      vertex 13.7812 20.4167 2
      vertex 11.2292 21.4375 2
    endloop
  endfacet
  facet normal 0 0 1
    outer loop
      vertex 20.4167 -16.3333 2
      vertex 8.49468 -6.17174 2
      vertex 19.0896 -17.3542 2
    endloop
  endfacet
  facet normal 0 0 1
    outer loop
      vertex 19.0896 -17.3542 2
      vertex 8.49468 -6.17174 2
      vertex 17.3542 -18.375 2
    endloop
  endfacet
  facet normal 0 0 1
    outer loop
      vertex 10.2705 -2.18307 2
      vertex 25.9592 -2.16327 2
      vertex 10.5 0 2
    endloop
  endfacet
  facet normal 0 0 1
    outer loop
      vertex 25.7428 6.4898 2
      vertex 9.59223 4.27073 2
      vertex 10.2705 2.18307 2
    endloop
  endfacet
  facet normal 0 0 1
    outer loop
      vertex 21.5938 15 2
      vertex 8.49468 6.17174 2
      vertex 9.59223 4.27073 2
    endloop
  endfacet
  facet normal 0 0 1
    outer loop
      vertex 17.3542 18.375 2
      vertex 7.02587 7.80302 2
      vertex 8.49468 6.17174 2
    endloop
  endfacet
  facet normal 0 0 1
    outer loop
      vertex 13.7812 20.4167 2
      vertex 5.25 9.09327 2
      vertex 7.02587 7.80302 2
    endloop
  endfacet
  facet normal 0 0 1
    outer loop
      vertex 11.2292 21.4375 2
      vertex 3.24468 9.98609 2
      vertex 5.25 9.09327 2
    endloop
  endfacet
  facet normal 0 0 1
    outer loop
      vertex 3.0625 23.4792 2
      vertex 3.24468 9.98609 2
      vertex 11.2292 21.4375 2
    endloop
  endfacet
  facet normal 0 0 1
    outer loop
      vertex 3.0625 23.4792 2
      vertex 1.09755 10.4425 2
      vertex 3.24468 9.98609 2
    endloop
  endfacet
  facet normal 0 0 1
    outer loop
      vertex 3.0625 23.4792 2
      vertex -1.09755 10.4425 2
      vertex 1.09755 10.4425 2
    endloop
  endfacet
  facet normal -0 0 1
    outer loop
      vertex -3.0625 23.4792 2
      vertex -1.09755 10.4425 2
      vertex 3.0625 23.4792 2
    endloop
  endfacet
  facet normal 0 0 1
    outer loop
      vertex -3.0625 23.4792 2
      vertex -3.24468 9.98609 2
      vertex -1.09755 10.4425 2
    endloop
  endfacet
  facet normal -0 0 1
    outer loop
      vertex -11.2292 21.4375 2
      vertex -3.24468 9.98609 2
      vertex -3.0625 23.4792 2
    endloop
  endfacet
  facet normal 0 0 1
    outer loop
      vertex -3.24468 9.98609 2
      vertex -11.2292 21.4375 2
      vertex -5.25 9.09327 2
    endloop
  endfacet
  facet normal -0 0 1
    outer loop
      vertex -13.7812 20.4167 2
      vertex -5.25 9.09327 2
      vertex -11.2292 21.4375 2
    endloop
  endfacet
  facet normal 0 0 1
    outer loop
      vertex -5.25 9.09327 2
      vertex -13.7812 20.4167 2
      vertex -7.02587 7.80302 2
    endloop
  endfacet
  facet normal 0 0 1
    outer loop
      vertex -7.02587 7.80302 2
      vertex -17.3542 18.375 2
      vertex -8.49468 6.17174 2
    endloop
  endfacet
  facet normal -0 0 1
    outer loop
      vertex -17.3542 18.375 2
      vertex -7.02587 7.80302 2
      vertex -15.8229 19.3958 2
    endloop
  endfacet
  facet normal -0 0 1
    outer loop
      vertex -15.8229 19.3958 2
      vertex -7.02587 7.80302 2
      vertex -13.7812 20.4167 2
    endloop
  endfacet
  facet normal -0 0 1
    outer loop
      vertex 7.02587 -7.80302 2
      vertex 17.3542 -18.375 2
      vertex 8.49468 -6.17174 2
    endloop
  endfacet
  facet normal 0 0 1
    outer loop
      vertex 17.3542 -18.375 2
      vertex 7.02587 -7.80302 2
      vertex 15.8229 -19.3958 2
    endloop
  endfacet
  facet normal 0 0 1
    outer loop
      vertex 15.8229 -19.3958 2
      vertex 7.02587 -7.80302 2
      vertex 13.7812 -20.4167 2
    endloop
  endfacet
  facet normal -0 0 1
    outer loop
      vertex 5.25 -9.09327 2
      vertex 13.7812 -20.4167 2
      vertex 7.02587 -7.80302 2
    endloop
  endfacet
  facet normal 0 0 1
    outer loop
      vertex 13.7812 -20.4167 2
      vertex 5.25 -9.09327 2
      vertex 11.2292 -21.4375 2
    endloop
  endfacet
  facet normal -0 0 1
    outer loop
      vertex 3.24468 -9.98609 2
      vertex 11.2292 -21.4375 2
      vertex 5.25 -9.09327 2
    endloop
  endfacet
  facet normal 0 0 1
    outer loop
      vertex 3.24468 -9.98609 2
      vertex 3.0625 -23.4792 2
      vertex 11.2292 -21.4375 2
    endloop
  endfacet
  facet normal -0 0 1
    outer loop
      vertex 1.09755 -10.4425 2
      vertex 3.0625 -23.4792 2
      vertex 3.24468 -9.98609 2
    endloop
  endfacet
  facet normal 0 0 1
    outer loop
      vertex 1.09755 -10.4425 2
      vertex 0 -23.4792 2
      vertex 3.0625 -23.4792 2
    endloop
  endfacet
  facet normal -0 0 1
    outer loop
      vertex -1.09755 -10.4425 2
      vertex 0 -23.4792 2
      vertex 1.09755 -10.4425 2
    endloop
  endfacet
  facet normal 0 0 1
    outer loop
      vertex -3.24468 -9.98609 2
      vertex 0 -23.4792 2
      vertex -1.09755 -10.4425 2
    endloop
  endfacet
  facet normal 0 0 1
    outer loop
      vertex 0 -23.4792 2
      vertex -3.24468 -9.98609 2
      vertex -3.2449 -24.8776 2
    endloop
  endfacet
  facet normal 0 0 1
    outer loop
      vertex 0 -23.4792 2
      vertex -3.2449 -24.8776 2
      vertex 0 -24.8776 2
    endloop
  endfacet
  facet normal 0 0 1
    outer loop
      vertex -11.898 -22.7143 2
      vertex -3.24468 -9.98609 2
      vertex -5.25 -9.09327 2
    endloop
  endfacet
  facet normal 0 0 1
    outer loop
      vertex -14.602 -21.6327 2
      vertex -5.25 -9.09327 2
      vertex -7.02587 -7.80302 2
    endloop
  endfacet
  facet normal 0 0 1
    outer loop
      vertex -18.3878 -19.4694 2
      vertex -7.02587 -7.80302 2
      vertex -8.49468 -6.17174 2
    endloop
  endfacet
  facet normal 0 0 1
    outer loop
      vertex -24.3367 -12.9796 2
      vertex -8.49468 -6.17174 2
      vertex -9.59223 -4.27073 2
    endloop
  endfacet
  facet normal 0 0 1
    outer loop
      vertex -25.7428 -6.4898 2
      vertex -9.59223 -4.27073 2
      vertex -10.2705 -2.18307 2
    endloop
  endfacet
  facet normal 0 0 1
    outer loop
      vertex -3.24468 -9.98609 2
      vertex -11.898 -22.7143 2
      vertex -3.2449 -24.8776 2
    endloop
  endfacet
  facet normal -0 0 1
    outer loop
      vertex -24.5 0 2
      vertex -10.2705 -2.18307 2
      vertex -10.5 0 2
    endloop
  endfacet
  facet normal -0 0 1
    outer loop
      vertex -19.0896 17.3542 2
      vertex -8.49468 6.17174 2
      vertex -17.3542 18.375 2
    endloop
  endfacet
  facet normal -0 0 1
    outer loop
      vertex -20.4167 16.3333 2
      vertex -8.49468 6.17174 2
      vertex -19.0896 17.3542 2
    endloop
  endfacet
  facet normal 0 0 1
    outer loop
      vertex -10.2705 -2.18307 2
      vertex -24.5 0 2
      vertex -25.7428 -6.4898 2
    endloop
  endfacet
  facet normal -0 0 1
    outer loop
      vertex -22.9688 12.25 2
      vertex -8.49468 6.17174 2
      vertex -20.4167 16.3333 2
    endloop
  endfacet
  facet normal 0 0 1
    outer loop
      vertex -5.25 -9.09327 2
      vertex -14.602 -21.6327 2
      vertex -11.898 -22.7143 2
    endloop
  endfacet
  facet normal 0 0 1
    outer loop
      vertex -8.49468 6.17174 2
      vertex -22.9688 12.25 2
      vertex -9.59223 4.27073 2
    endloop
  endfacet
  facet normal 0 0 1
    outer loop
      vertex -7.02587 -7.80302 2
      vertex -16.7653 -20.551 2
      vertex -14.602 -21.6327 2
    endloop
  endfacet
  facet normal 0 0 1
    outer loop
      vertex -9.59223 4.27073 2
      vertex -24.2958 6.125 2
      vertex -10.2705 2.18307 2
    endloop
  endfacet
  facet normal 0 0 1
    outer loop
      vertex -7.02587 -7.80302 2
      vertex -18.3878 -19.4694 2
      vertex -16.7653 -20.551 2
    endloop
  endfacet
  facet normal -0 0 1
    outer loop
      vertex -24.2958 6.125 2
      vertex -9.59223 4.27073 2
      vertex -22.9688 12.25 2
    endloop
  endfacet
  facet normal 0 0 1
    outer loop
      vertex -22.9688 12.25 2
      vertex -20.4167 16.3333 2
      vertex -21.4375 15.3125 2
    endloop
  endfacet
  facet normal 0 0 1
    outer loop
      vertex -9.59223 -4.27073 2
      vertex -25.7428 -6.4898 2
      vertex -24.3367 -12.9796 2
    endloop
  endfacet
  facet normal 0 0 1
    outer loop
      vertex -8.49468 -6.17174 2
      vertex -24.3367 -12.9796 2
      vertex -21.6327 -17.3061 2
    endloop
  endfacet
  facet normal 0 0 1
    outer loop
      vertex -24.5 2.04167 2
      vertex -10.2705 2.18307 2
      vertex -24.2958 6.125 2
    endloop
  endfacet
  facet normal 0 0 1
    outer loop
      vertex -10.2705 2.18307 2
      vertex -24.5 2.04167 2
      vertex -10.5 0 2
    endloop
  endfacet
  facet normal 0 0 1
    outer loop
      vertex -8.49468 -6.17174 2
      vertex -21.6327 -17.3061 2
      vertex -20.2265 -18.3878 2
    endloop
  endfacet
  facet normal 0 0 1
    outer loop
      vertex -10.5 0 2
      vertex -24.5 2.04167 2
      vertex -24.5 0 2
    endloop
  endfacet
  facet normal 0 0 1
    outer loop
      vertex -21.6327 -17.3061 2
      vertex -24.3367 -12.9796 2
      vertex -22.7143 -16.2245 2
    endloop
  endfacet
  facet normal 0 0 1
    outer loop
      vertex -8.49468 -6.17174 2
      vertex -20.2265 -18.3878 2
      vertex -18.3878 -19.4694 2
    endloop
  endfacet
  facet normal 0 0 1
    outer loop
      vertex -25.9592 -2.16327 2
      vertex -24.5 0 2
      vertex -25.9592 0 2
    endloop
  endfacet
  facet normal 0 0 1
    outer loop
      vertex -24.5 0 2
      vertex -25.9592 -2.16327 2
      vertex -25.7428 -6.4898 2
    endloop
  endfacet
  facet normal -0.89437 -0.447328 0
    outer loop
      vertex 21.5938 15 2
      vertex 21.4375 15.3125 32.449
      vertex 21.4375 15.3125 2
    endloop
  endfacet
  facet normal -0.89437 -0.447328 0
    outer loop
      vertex 21.4375 15.3125 32.449
      vertex 21.5938 15 2
      vertex 21.5938 15 32.449
    endloop
  endfacet
  facet normal -0.707107 -0.707107 0
    outer loop
      vertex 21.4375 15.3125 2
      vertex 20.4167 16.3333 32.449
      vertex 20.4167 16.3333 2
    endloop
  endfacet
  facet normal -0.707107 -0.707107 0
    outer loop
      vertex 20.4167 16.3333 32.449
      vertex 21.4375 15.3125 2
      vertex 21.4375 15.3125 32.449
    endloop
  endfacet
  facet normal -0.609731 -0.792608 0
    outer loop
      vertex 19.0896 17.3542 2
      vertex 20.4167 16.3333 32.449
      vertex 19.0896 17.3542 32.449
    endloop
  endfacet
  facet normal -0.609731 -0.792608 -0
    outer loop
      vertex 20.4167 16.3333 32.449
      vertex 19.0896 17.3542 2
      vertex 20.4167 16.3333 2
    endloop
  endfacet
  facet normal -0.507011 -0.861939 0
    outer loop
      vertex 17.3542 18.375 2
      vertex 19.0896 17.3542 32.449
      vertex 17.3542 18.375 32.449
    endloop
  endfacet
  facet normal -0.507011 -0.861939 -0
    outer loop
      vertex 19.0896 17.3542 32.449
      vertex 17.3542 18.375 2
      vertex 19.0896 17.3542 2
    endloop
  endfacet
  facet normal -0.554675 -0.832067 0
    outer loop
      vertex 15.8229 19.3958 2
      vertex 17.3542 18.375 32.449
      vertex 15.8229 19.3958 32.449
    endloop
  endfacet
  facet normal -0.554675 -0.832067 -0
    outer loop
      vertex 17.3542 18.375 32.449
      vertex 15.8229 19.3958 2
      vertex 17.3542 18.375 2
    endloop
  endfacet
  facet normal -0.447231 -0.894418 0
    outer loop
      vertex 13.7812 20.4167 2
      vertex 15.8229 19.3958 32.449
      vertex 13.7812 20.4167 32.449
    endloop
  endfacet
  facet normal -0.447231 -0.894418 -0
    outer loop
      vertex 15.8229 19.3958 32.449
      vertex 13.7812 20.4167 2
      vertex 15.8229 19.3958 2
    endloop
  endfacet
  facet normal -0.371391 -0.928477 0
    outer loop
      vertex 11.2292 21.4375 2
      vertex 13.7812 20.4167 32.449
      vertex 11.2292 21.4375 32.449
    endloop
  endfacet
  facet normal -0.371391 -0.928477 -0
    outer loop
      vertex 13.7812 20.4167 32.449
      vertex 11.2292 21.4375 2
      vertex 13.7812 20.4167 2
    endloop
  endfacet
  facet normal -0.242538 -0.970142 0
    outer loop
      vertex 3.0625 23.4792 2
      vertex 11.2292 21.4375 32.449
      vertex 3.0625 23.4792 32.449
    endloop
  endfacet
  facet normal -0.242538 -0.970142 -0
    outer loop
      vertex 11.2292 21.4375 32.449
      vertex 3.0625 23.4792 2
      vertex 11.2292 21.4375 2
    endloop
  endfacet
  facet normal 0 -1 0
    outer loop
      vertex -3.0625 23.4792 2
      vertex 3.0625 23.4792 32.449
      vertex -3.0625 23.4792 32.449
    endloop
  endfacet
  facet normal 0 -1 -0
    outer loop
      vertex 3.0625 23.4792 32.449
      vertex -3.0625 23.4792 2
      vertex 3.0625 23.4792 2
    endloop
  endfacet
  facet normal 0.998752 -0.0499458 0
    outer loop
      vertex -24.5 2.04167 32.449
      vertex -24.2958 6.125 2
      vertex -24.2958 6.125 32.449
    endloop
  endfacet
  facet normal 0.998752 -0.0499458 0
    outer loop
      vertex -24.2958 6.125 2
      vertex -24.5 2.04167 32.449
      vertex -24.5 2.04167 2
    endloop
  endfacet
  facet normal 0.977326 -0.211741 0
    outer loop
      vertex -24.2958 6.125 32.449
      vertex -22.9688 12.25 2
      vertex -22.9688 12.25 32.449
    endloop
  endfacet
  facet normal 0.977326 -0.211741 0
    outer loop
      vertex -22.9688 12.25 2
      vertex -24.2958 6.125 32.449
      vertex -24.2958 6.125 2
    endloop
  endfacet
  facet normal 0.894421 -0.447225 0
    outer loop
      vertex -22.9688 12.25 32.449
      vertex -21.4375 15.3125 2
      vertex -21.4375 15.3125 32.449
    endloop
  endfacet
  facet normal 0.894421 -0.447225 0
    outer loop
      vertex -21.4375 15.3125 2
      vertex -22.9688 12.25 32.449
      vertex -22.9688 12.25 2
    endloop
  endfacet
  facet normal 0.707107 -0.707107 0
    outer loop
      vertex -21.4375 15.3125 32.449
      vertex -20.4167 16.3333 2
      vertex -20.4167 16.3333 32.449
    endloop
  endfacet
  facet normal 0.707107 -0.707107 0
    outer loop
      vertex -20.4167 16.3333 2
      vertex -21.4375 15.3125 32.449
      vertex -21.4375 15.3125 2
    endloop
  endfacet
  facet normal 0.609731 -0.792608 0
    outer loop
      vertex -20.4167 16.3333 2
      vertex -19.0896 17.3542 32.449
      vertex -20.4167 16.3333 32.449
    endloop
  endfacet
  facet normal 0.609731 -0.792608 0
    outer loop
      vertex -19.0896 17.3542 32.449
      vertex -20.4167 16.3333 2
      vertex -19.0896 17.3542 2
    endloop
  endfacet
  facet normal 0.507011 -0.861939 0
    outer loop
      vertex -19.0896 17.3542 2
      vertex -17.3542 18.375 32.449
      vertex -19.0896 17.3542 32.449
    endloop
  endfacet
  facet normal 0.507011 -0.861939 0
    outer loop
      vertex -17.3542 18.375 32.449
      vertex -19.0896 17.3542 2
      vertex -17.3542 18.375 2
    endloop
  endfacet
  facet normal 0.554675 -0.832067 0
    outer loop
      vertex -17.3542 18.375 2
      vertex -15.8229 19.3958 32.449
      vertex -17.3542 18.375 32.449
    endloop
  endfacet
  facet normal 0.554675 -0.832067 0
    outer loop
      vertex -15.8229 19.3958 32.449
      vertex -17.3542 18.375 2
      vertex -15.8229 19.3958 2
    endloop
  endfacet
  facet normal 0.447231 -0.894418 0
    outer loop
      vertex -15.8229 19.3958 2
      vertex -13.7812 20.4167 32.449
      vertex -15.8229 19.3958 32.449
    endloop
  endfacet
  facet normal 0.447231 -0.894418 0
    outer loop
      vertex -13.7812 20.4167 32.449
      vertex -15.8229 19.3958 2
      vertex -13.7812 20.4167 2
    endloop
  endfacet
  facet normal 0.371391 -0.928477 0
    outer loop
      vertex -13.7812 20.4167 2
      vertex -11.2292 21.4375 32.449
      vertex -13.7812 20.4167 32.449
    endloop
  endfacet
  facet normal 0.371391 -0.928477 0
    outer loop
      vertex -11.2292 21.4375 32.449
      vertex -13.7812 20.4167 2
      vertex -11.2292 21.4375 2
    endloop
  endfacet
  facet normal 0.242538 -0.970142 0
    outer loop
      vertex -11.2292 21.4375 2
      vertex -3.0625 23.4792 32.449
      vertex -11.2292 21.4375 32.449
    endloop
  endfacet
  facet normal 0.242538 -0.970142 0
    outer loop
      vertex -3.0625 23.4792 32.449
      vertex -11.2292 21.4375 2
      vertex -3.0625 23.4792 2
    endloop
  endfacet
  facet normal 1 -0 0
    outer loop
      vertex -24.5 0 32.449
      vertex -24.5 2.04167 2
      vertex -24.5 2.04167 32.449
    endloop
  endfacet
  facet normal 1 0 0
    outer loop
      vertex -24.5 2.04167 2
      vertex -24.5 0 32.449
      vertex -24.5 0 2
    endloop
  endfacet
  facet normal -0.89437 0.447328 0
    outer loop
      vertex 21.4375 -15.3125 2
      vertex 21.5938 -15 32.449
      vertex 21.5938 -15 2
    endloop
  endfacet
  facet normal -0.89437 0.447328 0
    outer loop
      vertex 21.5938 -15 32.449
      vertex 21.4375 -15.3125 2
      vertex 21.4375 -15.3125 32.449
    endloop
  endfacet
  facet normal -0.707107 0.707107 0
    outer loop
      vertex 20.4167 -16.3333 2
      vertex 21.4375 -15.3125 32.449
      vertex 21.4375 -15.3125 2
    endloop
  endfacet
  facet normal -0.707107 0.707107 0
    outer loop
      vertex 21.4375 -15.3125 32.449
      vertex 20.4167 -16.3333 2
      vertex 20.4167 -16.3333 32.449
    endloop
  endfacet
  facet normal -0.609731 0.792608 0
    outer loop
      vertex 20.4167 -16.3333 2
      vertex 19.0896 -17.3542 32.449
      vertex 20.4167 -16.3333 32.449
    endloop
  endfacet
  facet normal -0.609731 0.792608 0
    outer loop
      vertex 19.0896 -17.3542 32.449
      vertex 20.4167 -16.3333 2
      vertex 19.0896 -17.3542 2
    endloop
  endfacet
  facet normal -0.507011 0.861939 0
    outer loop
      vertex 19.0896 -17.3542 2
      vertex 17.3542 -18.375 32.449
      vertex 19.0896 -17.3542 32.449
    endloop
  endfacet
  facet normal -0.507011 0.861939 0
    outer loop
      vertex 17.3542 -18.375 32.449
      vertex 19.0896 -17.3542 2
      vertex 17.3542 -18.375 2
    endloop
  endfacet
  facet normal -0.554675 0.832067 0
    outer loop
      vertex 17.3542 -18.375 2
      vertex 15.8229 -19.3958 32.449
      vertex 17.3542 -18.375 32.449
    endloop
  endfacet
  facet normal -0.554675 0.832067 0
    outer loop
      vertex 15.8229 -19.3958 32.449
      vertex 17.3542 -18.375 2
      vertex 15.8229 -19.3958 2
    endloop
  endfacet
  facet normal -0.447231 0.894418 0
    outer loop
      vertex 15.8229 -19.3958 2
      vertex 13.7812 -20.4167 32.449
      vertex 15.8229 -19.3958 32.449
    endloop
  endfacet
  facet normal -0.447231 0.894418 0
    outer loop
      vertex 13.7812 -20.4167 32.449
      vertex 15.8229 -19.3958 2
      vertex 13.7812 -20.4167 2
    endloop
  endfacet
  facet normal -0.371391 0.928477 0
    outer loop
      vertex 13.7812 -20.4167 2
      vertex 11.2292 -21.4375 32.449
      vertex 13.7812 -20.4167 32.449
    endloop
  endfacet
  facet normal -0.371391 0.928477 0
    outer loop
      vertex 11.2292 -21.4375 32.449
      vertex 13.7812 -20.4167 2
      vertex 11.2292 -21.4375 2
    endloop
  endfacet
  facet normal -0.242538 0.970142 0
    outer loop
      vertex 11.2292 -21.4375 2
      vertex 3.0625 -23.4792 32.449
      vertex 11.2292 -21.4375 32.449
    endloop
  endfacet
  facet normal -0.242538 0.970142 0
    outer loop
      vertex 3.0625 -23.4792 32.449
      vertex 11.2292 -21.4375 2
      vertex 3.0625 -23.4792 2
    endloop
  endfacet
  facet normal 0 1 -0
    outer loop
      vertex 3.0625 -23.4792 2
      vertex 0 -23.4792 32.449
      vertex 3.0625 -23.4792 32.449
    endloop
  endfacet
  facet normal 0 1 0
    outer loop
      vertex 0 -23.4792 32.449
      vertex 3.0625 -23.4792 2
      vertex 0 -23.4792 2
    endloop
  endfacet
  facet normal -0.951063 -0.308996 0
    outer loop
      vertex 10.2705 2.18307 0
      vertex 9.59223 4.27073 2
      vertex 9.59223 4.27073 0
    endloop
  endfacet
  facet normal -0.951063 -0.308996 0
    outer loop
      vertex 9.59223 4.27073 2
      vertex 10.2705 2.18307 0
      vertex 10.2705 2.18307 2
    endloop
  endfacet
  facet normal -0.99452 -0.104551 0
    outer loop
      vertex 10.5 0 0
      vertex 10.2705 2.18307 2
      vertex 10.2705 2.18307 0
    endloop
  endfacet
  facet normal -0.99452 -0.104551 0
    outer loop
      vertex 10.2705 2.18307 2
      vertex 10.5 0 0
      vertex 10.5 0 2
    endloop
  endfacet
  facet normal -0.951063 0.308996 0
    outer loop
      vertex 9.59223 -4.27073 0
      vertex 10.2705 -2.18307 2
      vertex 10.2705 -2.18307 0
    endloop
  endfacet
  facet normal -0.951063 0.308996 0
    outer loop
      vertex 10.2705 -2.18307 2
      vertex 9.59223 -4.27073 0
      vertex 9.59223 -4.27073 2
    endloop
  endfacet
  facet normal -0.406734 -0.913546 0
    outer loop
      vertex 3.24468 9.98609 0
      vertex 5.25 9.09327 2
      vertex 3.24468 9.98609 2
    endloop
  endfacet
  facet normal -0.406734 -0.913546 -0
    outer loop
      vertex 5.25 9.09327 2
      vertex 3.24468 9.98609 0
      vertex 5.25 9.09327 0
    endloop
  endfacet
  facet normal 0.587787 -0.809016 0
    outer loop
      vertex -7.02587 7.80302 0
      vertex -5.25 9.09327 2
      vertex -7.02587 7.80302 2
    endloop
  endfacet
  facet normal 0.587787 -0.809016 0
    outer loop
      vertex -5.25 9.09327 2
      vertex -7.02587 7.80302 0
      vertex -5.25 9.09327 0
    endloop
  endfacet
  facet normal 0.406734 -0.913546 0
    outer loop
      vertex -5.25 9.09327 0
      vertex -3.24468 9.98609 2
      vertex -5.25 9.09327 2
    endloop
  endfacet
  facet normal 0.406734 -0.913546 0
    outer loop
      vertex -3.24468 9.98609 2
      vertex -5.25 9.09327 0
      vertex -3.24468 9.98609 0
    endloop
  endfacet
  facet normal -0.587787 0.809016 0
    outer loop
      vertex 7.02587 -7.80302 0
      vertex 5.25 -9.09327 2
      vertex 7.02587 -7.80302 2
    endloop
  endfacet
  facet normal -0.587787 0.809016 0
    outer loop
      vertex 5.25 -9.09327 2
      vertex 7.02587 -7.80302 0
      vertex 5.25 -9.09327 0
    endloop
  endfacet
  facet normal 0.866025 0.5 0
    outer loop
      vertex -8.49468 -6.17174 2
      vertex -9.59223 -4.27073 0
      vertex -9.59223 -4.27073 2
    endloop
  endfacet
  facet normal 0.866025 0.5 0
    outer loop
      vertex -9.59223 -4.27073 0
      vertex -8.49468 -6.17174 2
      vertex -8.49468 -6.17174 0
    endloop
  endfacet
  facet normal -0.406734 0.913546 0
    outer loop
      vertex 5.25 -9.09327 0
      vertex 3.24468 -9.98609 2
      vertex 5.25 -9.09327 2
    endloop
  endfacet
  facet normal -0.406734 0.913546 0
    outer loop
      vertex 3.24468 -9.98609 2
      vertex 5.25 -9.09327 0
      vertex 3.24468 -9.98609 0
    endloop
  endfacet
  facet normal -0.207922 0.978145 0
    outer loop
      vertex 3.24468 -9.98609 0
      vertex 1.09755 -10.4425 2
      vertex 3.24468 -9.98609 2
    endloop
  endfacet
  facet normal -0.207922 0.978145 0
    outer loop
      vertex 1.09755 -10.4425 2
      vertex 3.24468 -9.98609 0
      vertex 1.09755 -10.4425 0
    endloop
  endfacet
  facet normal -0.587787 -0.809016 0
    outer loop
      vertex 5.25 9.09327 0
      vertex 7.02587 7.80302 2
      vertex 5.25 9.09327 2
    endloop
  endfacet
  facet normal -0.587787 -0.809016 -0
    outer loop
      vertex 7.02587 7.80302 2
      vertex 5.25 9.09327 0
      vertex 7.02587 7.80302 0
    endloop
  endfacet
  facet normal 0.951063 -0.308996 0
    outer loop
      vertex -10.2705 2.18307 2
      vertex -9.59223 4.27073 0
      vertex -9.59223 4.27073 2
    endloop
  endfacet
  facet normal 0.951063 -0.308996 0
    outer loop
      vertex -9.59223 4.27073 0
      vertex -10.2705 2.18307 2
      vertex -10.2705 2.18307 0
    endloop
  endfacet
  facet normal -0.99452 0.104551 0
    outer loop
      vertex 10.2705 -2.18307 0
      vertex 10.5 0 2
      vertex 10.5 0 0
    endloop
  endfacet
  facet normal -0.99452 0.104551 0
    outer loop
      vertex 10.5 0 2
      vertex 10.2705 -2.18307 0
      vertex 10.2705 -2.18307 2
    endloop
  endfacet
  facet normal 0.743145 -0.66913 0
    outer loop
      vertex -8.49468 6.17174 2
      vertex -7.02587 7.80302 0
      vertex -7.02587 7.80302 2
    endloop
  endfacet
  facet normal 0.743145 -0.66913 0
    outer loop
      vertex -7.02587 7.80302 0
      vertex -8.49468 6.17174 2
      vertex -8.49468 6.17174 0
    endloop
  endfacet
  facet normal 0 -1 0
    outer loop
      vertex -1.09755 10.4425 0
      vertex 1.09755 10.4425 2
      vertex -1.09755 10.4425 2
    endloop
  endfacet
  facet normal 0 -1 -0
    outer loop
      vertex 1.09755 10.4425 2
      vertex -1.09755 10.4425 0
      vertex 1.09755 10.4425 0
    endloop
  endfacet
  facet normal -0.866025 0.5 0
    outer loop
      vertex 8.49468 -6.17174 0
      vertex 9.59223 -4.27073 2
      vertex 9.59223 -4.27073 0
    endloop
  endfacet
  facet normal -0.866025 0.5 0
    outer loop
      vertex 9.59223 -4.27073 2
      vertex 8.49468 -6.17174 0
      vertex 8.49468 -6.17174 2
    endloop
  endfacet
  facet normal 0.207922 -0.978145 0
    outer loop
      vertex -3.24468 9.98609 0
      vertex -1.09755 10.4425 2
      vertex -3.24468 9.98609 2
    endloop
  endfacet
  facet normal 0.207922 -0.978145 0
    outer loop
      vertex -1.09755 10.4425 2
      vertex -3.24468 9.98609 0
      vertex -1.09755 10.4425 0
    endloop
  endfacet
  facet normal -0.743145 0.66913 0
    outer loop
      vertex 7.02587 -7.80302 0
      vertex 8.49468 -6.17174 2
      vertex 8.49468 -6.17174 0
    endloop
  endfacet
  facet normal -0.743145 0.66913 0
    outer loop
      vertex 8.49468 -6.17174 2
      vertex 7.02587 -7.80302 0
      vertex 7.02587 -7.80302 2
    endloop
  endfacet
  facet normal 0.406734 0.913546 -0
    outer loop
      vertex -3.24468 -9.98609 0
      vertex -5.25 -9.09327 2
      vertex -3.24468 -9.98609 2
    endloop
  endfacet
  facet normal 0.406734 0.913546 0
    outer loop
      vertex -5.25 -9.09327 2
      vertex -3.24468 -9.98609 0
      vertex -5.25 -9.09327 0
    endloop
  endfacet
  facet normal 0.587787 0.809016 -0
    outer loop
      vertex -5.25 -9.09327 0
      vertex -7.02587 -7.80302 2
      vertex -5.25 -9.09327 2
    endloop
  endfacet
  facet normal 0.587787 0.809016 0
    outer loop
      vertex -7.02587 -7.80302 2
      vertex -5.25 -9.09327 0
      vertex -7.02587 -7.80302 0
    endloop
  endfacet
  facet normal -0.743145 -0.66913 0
    outer loop
      vertex 8.49468 6.17174 0
      vertex 7.02587 7.80302 2
      vertex 7.02587 7.80302 0
    endloop
  endfacet
  facet normal -0.743145 -0.66913 0
    outer loop
      vertex 7.02587 7.80302 2
      vertex 8.49468 6.17174 0
      vertex 8.49468 6.17174 2
    endloop
  endfacet
  facet normal 0.99452 -0.104551 0
    outer loop
      vertex -10.5 0 2
      vertex -10.2705 2.18307 0
      vertex -10.2705 2.18307 2
    endloop
  endfacet
  facet normal 0.99452 -0.104551 0
    outer loop
      vertex -10.2705 2.18307 0
      vertex -10.5 0 2
      vertex -10.5 0 0
    endloop
  endfacet
  facet normal 0 1 -0
    outer loop
      vertex 1.09755 -10.4425 0
      vertex -1.09755 -10.4425 2
      vertex 1.09755 -10.4425 2
    endloop
  endfacet
  facet normal 0 1 0
    outer loop
      vertex -1.09755 -10.4425 2
      vertex 1.09755 -10.4425 0
      vertex -1.09755 -10.4425 0
    endloop
  endfacet
  facet normal -0.866025 -0.5 0
    outer loop
      vertex 9.59223 4.27073 0
      vertex 8.49468 6.17174 2
      vertex 8.49468 6.17174 0
    endloop
  endfacet
  facet normal -0.866025 -0.5 0
    outer loop
      vertex 8.49468 6.17174 2
      vertex 9.59223 4.27073 0
      vertex 9.59223 4.27073 2
    endloop
  endfacet
  facet normal 0.207922 0.978145 -0
    outer loop
      vertex -1.09755 -10.4425 0
      vertex -3.24468 -9.98609 2
      vertex -1.09755 -10.4425 2
    endloop
  endfacet
  facet normal 0.207922 0.978145 0
    outer loop
      vertex -3.24468 -9.98609 2
      vertex -1.09755 -10.4425 0
      vertex -3.24468 -9.98609 0
    endloop
  endfacet
  facet normal 0.951063 0.308996 0
    outer loop
      vertex -9.59223 -4.27073 2
      vertex -10.2705 -2.18307 0
      vertex -10.2705 -2.18307 2
    endloop
  endfacet
  facet normal 0.951063 0.308996 0
    outer loop
      vertex -10.2705 -2.18307 0
      vertex -9.59223 -4.27073 2
      vertex -9.59223 -4.27073 0
    endloop
  endfacet
  facet normal 0.743145 0.66913 0
    outer loop
      vertex -7.02587 -7.80302 2
      vertex -8.49468 -6.17174 0
      vertex -8.49468 -6.17174 2
    endloop
  endfacet
  facet normal 0.743145 0.66913 0
    outer loop
      vertex -8.49468 -6.17174 0
      vertex -7.02587 -7.80302 2
      vertex -7.02587 -7.80302 0
    endloop
  endfacet
  facet normal -0.207922 -0.978145 0
    outer loop
      vertex 1.09755 10.4425 0
      vertex 3.24468 9.98609 2
      vertex 1.09755 10.4425 2
    endloop
  endfacet
  facet normal -0.207922 -0.978145 -0
    outer loop
      vertex 3.24468 9.98609 2
      vertex 1.09755 10.4425 0
      vertex 3.24468 9.98609 0
    endloop
  endfacet
  facet normal 0.99452 0.104551 0
    outer loop
      vertex -10.2705 -2.18307 2
      vertex -10.5 0 0
      vertex -10.5 0 2
    endloop
  endfacet
  facet normal 0.99452 0.104551 0
    outer loop
      vertex -10.5 0 0
      vertex -10.2705 -2.18307 2
      vertex -10.2705 -2.18307 0
    endloop
  endfacet
  facet normal 0.866025 -0.5 0
    outer loop
      vertex -9.59223 4.27073 2
      vertex -8.49468 6.17174 0
      vertex -8.49468 6.17174 2
    endloop
  endfacet
  facet normal 0.866025 -0.5 0
    outer loop
      vertex -8.49468 6.17174 0
      vertex -9.59223 4.27073 2
      vertex -9.59223 4.27073 0
    endloop
  endfacet
  facet normal -1 0 0
    outer loop
      vertex 0 -24.8776 2
      vertex 0 -23.4792 32.449
      vertex 0 -23.4792 2
    endloop
  endfacet
  facet normal -1 -0 0
    outer loop
      vertex 0 -23.4792 32.449
      vertex 0 -24.8776 2
      vertex 0 -24.8776 32.449
    endloop
  endfacet
  facet normal 0 -1 0
    outer loop
      vertex -25.9592 0 2
      vertex -24.5 0 32.449
      vertex -25.9592 0 32.449
    endloop
  endfacet
  facet normal 0 -1 -0
    outer loop
      vertex -24.5 0 32.449
      vertex -25.9592 0 2
      vertex -24.5 0 2
    endloop
  endfacet
  facet normal 0 -1 0
    outer loop
      vertex 21.5938 15 2
      vertex 23.3265 15 32.449
      vertex 21.5938 15 32.449
    endloop
  endfacet
  facet normal 0 -1 -0
    outer loop
      vertex 23.3265 15 32.449
      vertex 21.5938 15 2
      vertex 23.3265 15 2
    endloop
  endfacet
  facet normal 0 1 -0
    outer loop
      vertex 23.3265 -15 2
      vertex 21.5938 -15 32.449
      vertex 23.3265 -15 32.449
    endloop
  endfacet
  facet normal 0 1 0
    outer loop
      vertex 21.5938 -15 32.449
      vertex 23.3265 -15 2
      vertex 21.5938 -15 2
    endloop
  endfacet
endsolid OpenSCAD_Model
